<?xml version="1.0" encoding="utf-8"?>
<!-- Generator: Adobe Illustrator 21.1.0, SVG Export Plug-In . SVG Version: 6.00 Build 0)  -->
<svg version="1.1" id="Слой_1" xmlns="http://www.w3.org/2000/svg" xmlns:xlink="http://www.w3.org/1999/xlink" x="0px" y="0px"
	 viewBox="0 0 32 32" style="enable-background:new 0 0 32 32;" xml:space="preserve">
<style type="text/css">
	.st0{fill:#F3BA2F;}
	.st1{fill:#FFFFFF;}
</style>
<g>
	<circle class="st0" cx="16" cy="16" r="16"/>
	<path class="st1" d="M12.1,14.4l3.9-3.9l3.9,3.9l2.3-2.3L16,6l-6.1,6.1L12.1,14.4z M6,16l2.3-2.3l2.3,2.3l-2.3,2.3L6,16z
		 M12.1,17.6l3.9,3.9l3.9-3.9l2.3,2.3L16,26l-6.1-6.1l0,0C9.9,19.9,12.1,17.6,12.1,17.6z M21.5,16l2.3-2.3L26,16l-2.3,2.3L21.5,16z
		 M18.3,16L18.3,16L18.3,16L16,18.3L13.7,16l0,0l0,0l0.4-0.4l0.2-0.2l1.7-1.7L18.3,16L18.3,16z"/>
</g>
</svg>
