<?xml version="1.0" encoding="utf-8"?>
<!-- Generator: Adobe Illustrator 21.1.0, SVG Export Plug-In . SVG Version: 6.00 Build 0)  -->
<svg version="1.1" id="Слой_1" xmlns="http://www.w3.org/2000/svg" xmlns:xlink="http://www.w3.org/1999/xlink" x="0px" y="0px"
	 viewBox="0 0 32 32" style="enable-background:new 0 0 32 32;" xml:space="preserve">
<style type="text/css">
	.st0{fill-rule:evenodd;clip-rule:evenodd;fill:#F7931A;}
	.st1{fill:#FFFFFF;}
</style>
<path class="st0" d="M16,0c8.8,0,16,7.2,16,16s-7.2,16-16,16C7.2,32,0,24.8,0,16S7.2,0,16,0"/>
<path class="st1" d="M23.2,14c0.3-2.1-1.3-3.2-3.5-4l0.7-2.8l-1.7-0.4L18,9.5c-0.5-0.1-0.9-0.2-1.4-0.3l0.7-2.8L15.6,6l-0.7,2.8
	c-0.4-0.1-0.7-0.2-1.1-0.3l0,0L11.4,8l-0.5,1.8c0,0,1.3,0.3,1.3,0.3c0.7,0.2,0.8,0.6,0.8,1l-0.8,3.2c0,0,0.1,0,0.2,0.1l-0.2,0
	l-1.1,4.5c-0.1,0.2-0.3,0.5-0.8,0.4c0,0-1.3-0.3-1.3-0.3l-0.9,2l2.3,0.6c0.4,0.1,0.8,0.2,1.2,0.3l-0.7,2.9l1.7,0.4l0.7-2.8
	c0.5,0.1,0.9,0.2,1.4,0.4L14,25.5l1.7,0.4l0.7-2.9c2.9,0.6,5.2,0.3,6.1-2.3c0.8-2.1,0-3.4-1.6-4.2C22.1,16.3,23,15.6,23.2,14
	 M19.2,19.6c-0.5,2.1-4.1,1-5.3,0.7l0.9-3.8C16,16.7,19.8,17.3,19.2,19.6 M19.8,14c-0.5,2-3.5,1-4.5,0.7l0.9-3.5
	C17.1,11.5,20.3,12,19.8,14"/>
</svg>
