<?xml version="1.0" encoding="utf-8"?>
<!-- Generator: Adobe Illustrator 21.1.0, SVG Export Plug-In . SVG Version: 6.00 Build 0)  -->
<svg version="1.1" id="Слой_1" xmlns="http://www.w3.org/2000/svg" xmlns:xlink="http://www.w3.org/1999/xlink" x="0px" y="0px"
	 viewBox="0 0 980 996.2" style="enable-background:new 0 0 980 996.2;" xml:space="preserve">
<g>
	<path d="M513.4,498.1l462-470.8c6.2-6.3,6.1-16.5-0.2-22.7s-16.5-6.1-22.7,0.2L490,476L27.5,4.8C21.3-1.5,11.1-1.6,4.8,4.6
		S-1.6,21,4.6,27.3l462,470.8L5.5,968.9c-6.2,6.3-6.1,16.5,0.2,22.7c3.1,3.1,7.2,4.6,11.2,4.6c4.2,0,8.3-1.6,11.5-4.8L490,520.2
		l461.6,471.2c3.1,3.2,7.3,4.8,11.5,4.8c4.1,0,8.1-1.5,11.2-4.6c6.3-6.2,6.4-16.4,0.2-22.7L513.4,498.1z"/>
</g>
</svg>
