<svg width="40" height="17" viewBox="0 0 40 17" fill="none" xmlns="http://www.w3.org/2000/svg">
<g clip-path="url(#clip0)">
<path d="M7.58143 2.19141C8.04694 1.59375 8.37944 0.796875 8.27969 0C7.58144 0.0332031 6.75018 0.464844 6.25143 1.0293C5.81918 1.52734 5.42018 2.35742 5.51993 3.12109C6.31793 3.2207 7.08268 2.78906 7.58143 2.19141ZM8.27969 3.32031C7.14918 3.25391 6.18493 3.95117 5.65293 3.95117C5.12093 3.95117 4.28968 3.35352 3.39193 3.35352C2.22818 3.38672 1.16418 4.01758 0.56568 5.08008C-0.63132 7.17188 0.23318 10.2598 1.43018 11.9531C1.99543 12.7832 2.69368 13.7129 3.59143 13.6797C4.45593 13.6465 4.78843 13.1152 5.81918 13.1152C6.84993 13.1152 7.14918 13.6797 8.08018 13.6465C9.01119 13.6133 9.60969 12.8164 10.1749 11.9531C10.8399 10.9902 11.1059 10.0605 11.1059 10.0273C11.0727 9.99414 9.27719 9.33008 9.27719 7.27148C9.24394 5.54492 10.6737 4.71484 10.7402 4.68164C9.97544 3.48633 8.71194 3.35352 8.27969 3.32031Z" fill="#58677D"/>
<path d="M18.055 0.962891C20.5155 0.962891 22.2113 2.65625 22.2113 5.08008C22.2113 7.53711 20.4822 9.23047 17.9885 9.23047H15.2952V13.5137H13.3335V0.962891H18.055ZM15.2952 7.60352H17.523C19.2187 7.60352 20.183 6.67383 20.183 5.11328C20.183 3.51953 19.2187 2.62305 17.523 2.62305H15.262V7.60352H15.2952ZM22.71 10.957C22.71 9.36328 23.9403 8.36719 26.1348 8.23437L28.6618 8.10156V7.4043C28.6618 6.375 27.9635 5.77734 26.833 5.77734C25.7358 5.77734 25.0708 6.30859 24.9045 7.10547H23.109C23.2088 5.44531 24.6385 4.2168 26.8995 4.2168C29.1273 4.2168 30.557 5.37891 30.557 7.23828V13.5469H28.7615V12.0527H28.7283C28.1963 13.082 27.0325 13.7129 25.8355 13.7129C23.9735 13.7129 22.71 12.584 22.71 10.957ZM28.6618 10.127V9.39648L26.4008 9.5293C25.2703 9.5957 24.6385 10.0937 24.6385 10.8906C24.6385 11.6875 25.3035 12.2187 26.301 12.2187C27.631 12.2187 28.6618 11.3223 28.6618 10.127ZM32.2195 16.9336V15.4062C32.3525 15.4395 32.685 15.4395 32.818 15.4395C33.6825 15.4395 34.148 15.0742 34.4473 14.1445C34.4473 14.1113 34.6135 13.5801 34.6135 13.5801L31.2885 4.41602H33.3168L35.6443 11.8867H35.6775L38.005 4.41602H40L36.5753 14.0781C35.7773 16.3027 34.8795 17 32.9843 17C32.8513 16.9668 32.3858 16.9668 32.2195 16.9336Z" fill="#58677D"/>
</g>
<defs>
<clipPath id="clip0">
<rect width="40" height="17" fill="white"/>
</clipPath>
</defs>
</svg>
