<svg width="26" height="26" viewBox="0 0 26 26" fill="none" xmlns="http://www.w3.org/2000/svg">
<path d="M12.3143 0C12.746 0 13.1775 0 13.6093 0C13.64 0.0319991 13.6806 0.0203169 13.7169 0.0223486C14.6195 0.0690773 15.5066 0.214851 16.3784 0.450527C18.4937 1.02168 20.3585 2.04921 21.9379 3.5679C24.3173 5.85608 25.6544 8.65244 25.9553 11.9425C25.9683 12.0832 25.9525 12.2277 25.9997 12.3651C25.9997 12.7968 25.9997 13.2283 25.9997 13.66C25.9629 13.6829 25.9771 13.7205 25.9751 13.752C25.935 14.4496 25.84 15.1401 25.6851 15.821C25.1307 18.2585 23.9942 20.3842 22.2221 22.151C19.97 24.3965 17.2493 25.6594 14.0806 25.9548C13.9572 25.9662 13.8294 25.949 13.7106 25.9997C13.2281 25.9997 12.7458 25.9997 12.2633 25.9997C12.2503 25.969 12.2221 25.9766 12.1982 25.9744C11.9415 25.9497 11.6842 25.9304 11.4285 25.8997C10.0111 25.7298 8.65803 25.3336 7.37223 24.7162C5.58206 23.8568 4.06363 22.6505 2.83268 21.0917C1.202 19.026 0.270976 16.6794 0.0439352 14.0547C0.0347926 13.9485 0.0528238 13.8371 0 13.7362C0 13.2707 0 12.8052 0 12.3397C0.0332689 12.3212 0.0228565 12.2881 0.0243802 12.2605C0.0548555 11.6855 0.125965 11.1151 0.237453 10.5508C0.727852 8.06732 1.81861 5.88529 3.57348 4.05652C5.85126 1.68274 8.64025 0.350212 11.9184 0.0446971C12.0502 0.032253 12.1866 0.0497763 12.3143 0ZM16.9232 13.2392C17.2853 13.1483 17.6089 13.0211 17.8755 12.7902C18.6417 12.1269 18.849 11.2599 18.7197 10.2994C18.6331 9.65635 18.2407 9.18399 17.7387 8.79822C17.216 8.39671 16.6212 8.13513 16.0051 7.91875C15.8985 7.88117 15.8764 7.83977 15.904 7.73158C16.0826 7.03598 16.2515 6.33785 16.4303 5.64225C16.4562 5.54193 16.4315 5.51197 16.3383 5.48987C15.9396 5.39565 15.5416 5.29813 15.1452 5.19426C15.0518 5.16988 15.0231 5.19045 15.0004 5.28264C14.8359 5.95995 14.6629 6.63523 14.4991 7.3128C14.4722 7.42404 14.4361 7.44893 14.3224 7.4182C14.0288 7.33921 13.7314 7.2742 13.4345 7.20893C13.3479 7.18988 13.3205 7.1655 13.3456 7.06722C13.5234 6.37569 13.691 5.68161 13.8675 4.98982C13.8901 4.90144 13.8685 4.87325 13.7865 4.8537C13.3883 4.75796 12.9901 4.6612 12.5939 4.55707C12.4903 4.5299 12.4578 4.55377 12.4329 4.65713C12.2628 5.35908 12.0835 6.059 11.9113 6.76069C11.8907 6.8445 11.863 6.8737 11.7749 6.84856C11.6492 6.8125 11.5197 6.7899 11.3927 6.75815C10.6349 6.56844 9.87679 6.3795 9.12024 6.18496C9.02602 6.16084 8.99707 6.18217 8.97548 6.27283C8.88609 6.65098 8.78933 7.0276 8.6946 7.40448C8.62476 7.68181 8.62527 7.67825 8.90768 7.74733C9.21929 7.82352 9.53674 7.88015 9.83616 7.999C10.2153 8.14935 10.3982 8.48585 10.305 8.85968C9.7874 10.9378 9.26932 13.016 8.75022 15.0939C8.65981 15.4558 8.42591 15.6054 8.05894 15.5251C7.75368 15.4581 7.45121 15.3786 7.1495 15.2968C7.0624 15.2732 7.02278 15.2905 6.98722 15.374C6.78583 15.8484 6.58165 16.3218 6.37213 16.7927C6.33099 16.8853 6.35131 16.9105 6.44375 16.9333C7.32525 17.152 8.20547 17.3763 9.08697 17.5952C9.17484 17.617 9.19948 17.6411 9.17459 17.7381C8.99275 18.4459 8.82082 19.1565 8.63975 19.8646C8.61257 19.9707 8.63162 20.0073 8.74057 20.0322C9.13167 20.1213 9.52175 20.2171 9.90904 20.3214C10.0162 20.3504 10.0449 20.3245 10.0695 20.2242C10.2392 19.5263 10.4175 18.8304 10.5861 18.1323C10.6118 18.0256 10.6519 18.0106 10.7497 18.0381C11.0384 18.1186 11.3284 18.196 11.6207 18.2626C11.7353 18.2887 11.7541 18.3314 11.7256 18.4409C11.5473 19.1321 11.378 19.8257 11.2002 20.5172C11.1753 20.6137 11.1989 20.6455 11.2919 20.6676C11.6865 20.7608 12.0807 20.8568 12.4723 20.9614C12.5761 20.9891 12.6092 20.9685 12.6343 20.8654C12.8029 20.1716 12.981 19.4803 13.1491 18.7862C13.178 18.6666 13.2108 18.6194 13.3472 18.6519C13.5521 18.7007 13.7632 18.7258 13.9727 18.753C14.6124 18.8358 15.2531 18.8749 15.8941 18.7636C16.5468 18.6506 17.119 18.3824 17.5609 17.876C18.0127 17.3585 18.2519 16.7401 18.3931 16.078C18.6229 15.0005 18.2758 14.1344 17.3651 13.5133C17.2292 13.4208 17.0862 13.3401 16.9232 13.2392Z" fill="#58677D"/>
<path d="M16.9234 13.2393C17.0864 13.3401 17.2294 13.4211 17.3647 13.5133C18.2755 14.1345 18.6226 15.0005 18.3928 16.0781C18.2516 16.7399 18.0121 17.3583 17.5606 17.8761C17.1184 18.3828 16.5465 18.6507 15.8938 18.7637C15.2528 18.8747 14.6123 18.8356 13.9723 18.753C13.7628 18.7259 13.5518 18.7007 13.3468 18.652C13.2104 18.6195 13.1777 18.6667 13.1487 18.7863C12.9809 19.4801 12.8026 20.1717 12.634 20.8655C12.6088 20.9686 12.5758 20.9894 12.4719 20.9615C12.0803 20.8569 11.6862 20.7609 11.2915 20.6677C11.1986 20.6458 11.1749 20.6138 11.1998 20.5173C11.3776 19.8258 11.547 19.1322 11.7253 18.4409C11.7535 18.3312 11.7349 18.2886 11.6204 18.2626C11.3281 18.1961 11.0381 18.1187 10.7493 18.0381C10.6513 18.0107 10.6114 18.026 10.5858 18.1324C10.4171 18.8305 10.2388 19.5264 10.0692 20.2242C10.0448 20.3248 10.0159 20.3505 9.9087 20.3215C9.52141 20.2171 9.13132 20.1214 8.74022 20.0322C8.63127 20.0074 8.61223 19.9708 8.6394 19.8646C8.82073 19.1566 8.99241 18.446 9.17424 17.7382C9.19913 17.641 9.17424 17.6168 9.08663 17.5952C8.20513 17.3763 7.3249 17.1521 6.4434 16.9334C6.35121 16.9106 6.33064 16.8854 6.37178 16.7927C6.5813 16.3219 6.78548 15.8485 6.98687 15.3741C7.02217 15.2908 7.06205 15.2733 7.14916 15.2969C7.45086 15.3787 7.75333 15.4582 8.05859 15.5252C8.42557 15.6057 8.65946 15.4559 8.74987 15.094C9.26872 13.0161 9.78705 10.9379 10.3046 8.85975C10.3976 8.48592 10.215 8.14967 9.83581 7.99907C9.53614 7.88022 9.21869 7.82359 8.90733 7.7474C8.62492 7.67832 8.62467 7.68188 8.69426 7.40455C8.78898 7.02767 8.88574 6.65105 8.97514 6.2729C8.99672 6.18224 9.02568 6.16065 9.1199 6.18503C9.87645 6.37957 10.6345 6.56851 11.3923 6.75822C11.5193 6.78997 11.6488 6.81257 11.7746 6.84863C11.8624 6.87403 11.8904 6.84457 11.9109 6.76076C12.0831 6.05907 12.2622 5.35915 12.4326 4.6572C12.4577 4.5541 12.4902 4.52997 12.5936 4.55714C12.9898 4.66127 13.388 4.75803 13.7862 4.85377C13.8682 4.87358 13.8898 4.90177 13.8672 4.98989C13.6907 5.68168 13.5231 6.37576 13.3453 7.06729C13.3202 7.16557 13.3476 7.18995 13.4342 7.209C13.7313 7.27427 14.0287 7.33928 14.322 7.41827C14.4358 7.449 14.4719 7.42411 14.4988 7.31287C14.6626 6.6353 14.8355 5.96002 15.0001 5.28271C15.0225 5.19052 15.0512 5.16995 15.1449 5.19433C15.5413 5.2982 15.9393 5.39572 16.338 5.48994C16.4314 5.51204 16.4558 5.542 16.4299 5.64232C16.2509 6.33792 16.082 7.03606 15.9037 7.73165C15.876 7.83984 15.8981 7.88124 16.0048 7.91882C16.6209 8.1352 17.2157 8.39703 17.7383 8.79829C18.2404 9.18406 18.6328 9.65642 18.7194 10.2995C18.8486 11.2599 18.6414 12.127 17.8752 12.7903C17.6091 13.0211 17.2855 13.1484 16.9234 13.2393ZM13.6785 16.7628C13.8565 16.7648 14.0338 16.7589 14.2098 16.731C14.6255 16.665 15.0085 16.5319 15.2653 16.1708C15.5791 15.7294 15.7183 14.9444 15.0171 14.3354C14.7098 14.0685 14.3543 13.8854 13.9797 13.7363C13.3217 13.4745 12.6317 13.3279 11.9452 13.1664C11.8436 13.1425 11.852 13.2091 11.8396 13.2591C11.5955 14.2338 11.3548 15.2095 11.1082 16.1835C11.0853 16.2736 11.1089 16.3026 11.1904 16.3219C11.4121 16.375 11.6321 16.4354 11.8535 16.489C12.4534 16.634 13.0573 16.7572 13.6785 16.7628ZM14.3944 12.1C14.5001 12.0988 14.6776 12.0909 14.8526 12.0579C15.3539 11.9631 15.7325 11.7138 15.8897 11.2048C16.0424 10.7104 15.9494 10.2695 15.5746 9.89972C15.3734 9.70112 15.1352 9.55814 14.881 9.43903C14.2867 9.16069 13.6495 9.02838 13.0157 8.8826C12.9199 8.86051 12.9207 8.91968 12.907 8.97403C12.8064 9.37554 12.7071 9.77731 12.6073 10.1791C12.4889 10.6545 12.3703 11.1296 12.2525 11.6053C12.2403 11.6543 12.203 11.7084 12.2944 11.7326C12.9613 11.9075 13.6264 12.0881 14.3944 12.1Z" fill="#344051"/>
<path d="M13.678 16.7627C13.0568 16.7573 12.4529 16.6342 11.8528 16.4889C11.6313 16.4353 11.4114 16.3749 11.1897 16.3218C11.1082 16.3022 11.0845 16.2736 11.1074 16.1834C11.354 15.2092 11.595 14.2337 11.8388 13.259C11.8512 13.209 11.8429 13.1425 11.9444 13.1663C12.6307 13.3278 13.3209 13.4744 13.9789 13.7362C14.3535 13.8853 14.7091 14.0684 15.0164 14.3353C15.7176 14.9446 15.5784 15.7296 15.2645 16.1707C15.0077 16.5316 14.625 16.6649 14.209 16.7309C14.0333 16.7589 13.856 16.7647 13.678 16.7627Z" fill="#58677D"/>
<path d="M14.3943 12.1C13.626 12.0881 12.9612 11.9075 12.2948 11.7323C12.2031 11.7081 12.2407 11.654 12.2529 11.605C12.3705 11.1294 12.4893 10.6542 12.6077 10.1788C12.7075 9.77701 12.8068 9.37525 12.9073 8.97374C12.921 8.91939 12.9203 8.86022 13.016 8.88231C13.6499 9.02809 14.2871 9.1604 14.8814 9.43874C15.1356 9.55785 15.3738 9.70083 15.5749 9.89942C15.9495 10.2692 16.0427 10.7101 15.8901 11.2045C15.7329 11.7135 15.3542 11.9628 14.8529 12.0576C14.6774 12.0908 14.4999 12.0987 14.3943 12.1Z" fill="#58677D"/>
</svg>
