<svg width="16" height="25" viewBox="0 0 16 25" fill="none" xmlns="http://www.w3.org/2000/svg">
<path d="M0.424316 12.6505C0.554019 12.5771 0.597845 12.4362 0.667731 12.3188C3.05094 8.30163 5.43178 4.28326 7.8144 0.266086C7.86948 0.172775 7.93937 0.0884945 8.00274 0L8.00096 0.0282942C8.10046 0.255851 8.14488 0.495449 8.14488 0.743474C8.14784 3.44466 8.14843 6.14585 8.14488 8.84704C8.14488 8.93734 8.14132 9.02704 8.12533 9.11493C8.11941 9.14865 8.10757 9.18116 8.0898 9.21065C7.93285 9.42798 7.70484 9.54296 7.47031 9.64951C6.03292 10.3051 4.59967 10.9709 3.16584 11.6343C2.44862 11.966 1.72845 12.2899 1.01597 12.6324C0.847182 12.7137 0.665362 12.7336 0.48591 12.7679C0.465774 12.7685 0.445045 12.7691 0.424909 12.7703C0.424316 12.7306 0.424316 12.6902 0.424316 12.6505Z" fill="#58677D"/>
<path d="M15.5308 12.7047C15.5468 12.6981 15.5622 12.6999 15.5759 12.7107C15.5759 12.7306 15.5759 12.751 15.5759 12.7709C14.9131 13.0984 14.2984 13.512 13.6641 13.8906C11.8743 14.9586 10.0904 16.0356 8.30362 17.1083C8.22782 17.1535 8.14786 17.1908 8.06969 17.2317C7.91392 17.2191 7.89201 17.0957 7.87128 16.9771C7.85233 16.8687 7.8547 16.7574 7.8547 16.6472C7.85292 14.3825 7.85352 12.1171 7.85411 9.85239C7.85411 9.63085 7.85233 9.40931 8.00276 9.2245L8.00395 9.2257C8.12595 9.11493 8.24262 9.18537 8.3593 9.23714C9.60065 9.79159 10.8302 10.3731 12.0644 10.9426C13.0221 11.3839 13.9792 11.8258 14.9356 12.2688C15.1684 12.376 15.3597 12.5211 15.5308 12.7047Z" fill="#344051"/>
<path d="M8.00277 9.22388C8.00218 11.7673 8.00099 14.3114 8.0004 16.8549C8.0004 16.9843 7.98678 17.1173 8.0691 17.2311C7.97375 17.3359 7.90623 17.2299 7.84109 17.1908C5.38858 15.7183 2.93726 14.2434 0.485352 12.7685C0.568266 12.6258 0.721659 12.5963 0.853731 12.5349C3.23635 11.4302 5.61956 10.3273 8.00277 9.22388Z" fill="#3D4A5D"/>
<path d="M8.00282 25C7.55804 24.463 7.1867 23.8712 6.78752 23.3012C4.73656 20.37 2.68975 17.4358 0.641748 14.5029C0.598514 14.4403 0.561202 14.3735 0.554688 14.2705C3.03799 15.7581 5.5207 17.2456 8.004 18.7332C8.14496 18.8216 8.14081 18.9691 8.1414 19.107C8.15029 20.8859 8.15206 22.6648 8.1414 24.4432C8.14022 24.631 8.08395 24.8062 8.00045 24.9723L8.00282 25Z" fill="#58677D"/>
<path d="M8.00049 24.9724C8.00167 22.8925 8.00286 20.8125 8.00404 18.7332C10.3576 17.3215 12.7118 15.9098 15.066 14.4993C15.1928 14.4235 15.3225 14.3524 15.4504 14.279C15.4688 14.394 15.3847 14.4638 15.3296 14.5427C12.9464 17.9566 10.562 21.37 8.17579 24.7821C8.12664 24.852 8.09939 24.9477 8.00049 24.9724Z" fill="#3D4A5D"/>
<path d="M15.5308 12.7047C13.0221 11.5446 10.5133 10.3846 8.00453 9.22453C8.00335 6.15912 8.00216 3.09372 8.00098 0.0283203C8.09633 0.0620325 8.11824 0.158353 8.16207 0.232399C10.5856 4.3176 13.0079 8.40399 15.429 12.4904C15.4687 12.5584 15.4971 12.6331 15.5308 12.7047Z" fill="#3D4A5D"/>
</svg>
