<svg width="35" height="27" viewBox="0 0 35 27" fill="none" xmlns="http://www.w3.org/2000/svg">
<g clip-path="url(#clip0)">
<path d="M34.3105 26.6339V26.7033H34.3758C34.3881 26.7035 34.4001 26.7005 34.4108 26.6945C34.4151 26.6915 34.4185 26.6875 34.4208 26.6829C34.4231 26.6782 34.4242 26.6731 34.4239 26.6679C34.4241 26.6629 34.4231 26.6578 34.4208 26.6533C34.4185 26.6488 34.415 26.6449 34.4108 26.6421C34.4003 26.6358 34.3881 26.6327 34.3758 26.6332H34.3105V26.6339ZM34.3765 26.5848C34.4045 26.5831 34.4322 26.5911 34.4549 26.6074C34.464 26.6148 34.4712 26.6242 34.476 26.6349C34.4808 26.6455 34.483 26.6572 34.4824 26.6688C34.4828 26.6788 34.481 26.6889 34.4772 26.6982C34.4734 26.7075 34.4677 26.7159 34.4603 26.7228C34.4428 26.7379 34.4208 26.747 34.3977 26.7486L34.4852 26.8475H34.4178L34.3373 26.7493H34.3112V26.8475H34.2549V26.585H34.3774L34.3765 26.5848ZM34.359 26.9381C34.3886 26.9384 34.4178 26.9325 34.4449 26.9208C34.471 26.9096 34.4948 26.8937 34.5149 26.8737C34.5351 26.8538 34.5512 26.8303 34.5623 26.8043C34.5853 26.7493 34.5853 26.6875 34.5623 26.6325C34.551 26.6067 34.5349 26.5831 34.5149 26.5631C34.4948 26.5432 34.471 26.5273 34.4449 26.5161C34.4177 26.505 34.3885 26.4995 34.359 26.4998C34.329 26.4995 34.2993 26.5051 34.2715 26.5161C34.2448 26.5271 34.2205 26.543 34.1999 26.5631C34.169 26.5946 34.148 26.6344 34.1397 26.6776C34.1314 26.7208 34.1361 26.7655 34.1532 26.8061C34.1639 26.8321 34.1798 26.8557 34.1999 26.8755C34.2205 26.8956 34.2448 26.9115 34.2715 26.9225C34.2991 26.9342 34.3289 26.9401 34.359 26.9399V26.9381ZM34.359 26.4366C34.4359 26.4366 34.5098 26.4665 34.5646 26.5199C34.5911 26.5456 34.6121 26.5762 34.6266 26.61C34.6415 26.6447 34.6492 26.682 34.6492 26.7197C34.6492 26.7575 34.6415 26.7948 34.6266 26.8295C34.6118 26.8631 34.5908 26.8936 34.5646 26.9196C34.5378 26.9451 34.5065 26.9656 34.4724 26.9803C34.4365 26.9954 34.398 27.0031 34.359 27.0028C34.3196 27.0031 34.2805 26.9954 34.2442 26.9803C34.2097 26.966 34.1781 26.9454 34.1513 26.9196C34.1251 26.8927 34.1044 26.8611 34.0902 26.8265C34.0752 26.7919 34.0675 26.7545 34.0675 26.7168C34.0675 26.6791 34.0752 26.6417 34.0902 26.607C34.1046 26.5733 34.1257 26.5426 34.1521 26.517C34.1787 26.4907 34.2103 26.47 34.2451 26.4562C34.2814 26.4411 34.3205 26.4334 34.3599 26.4337L34.359 26.4366ZM7.563 25.4227C7.563 24.9221 7.89375 24.5109 8.43433 24.5109C8.95093 24.5109 9.29953 24.9044 9.29953 25.4227C9.29953 25.9411 8.95093 26.3346 8.43433 26.3346C7.89375 26.3346 7.563 25.9234 7.563 25.4227ZM9.8884 25.4227V23.9981H9.26382V24.3452C9.06572 24.0887 8.76525 23.9279 8.35663 23.9279C7.55163 23.9279 6.91988 24.5539 6.91988 25.4234C6.91988 26.293 7.55128 26.919 8.35663 26.919C8.76508 26.919 9.06572 26.758 9.26382 26.5017V26.8475H9.8877V25.4227H9.8884ZM30.992 25.4227C30.992 24.9221 31.3228 24.5109 31.8635 24.5109C32.3806 24.5109 32.7287 24.9044 32.7287 25.4227C32.7287 25.9411 32.3806 26.3346 31.8635 26.3346C31.3229 26.3346 30.992 25.9234 30.992 25.4227ZM33.3181 25.4227V22.8546H32.693V24.3452C32.4949 24.0887 32.1944 23.9279 31.7858 23.9279C30.9808 23.9279 30.349 24.5539 30.349 25.4234C30.349 26.293 30.9804 26.919 31.7858 26.919C32.1944 26.919 32.4949 26.758 32.693 26.5017V26.8475H33.3181V25.4227ZM17.6402 24.4816C18.0427 24.4816 18.3012 24.7318 18.3672 25.1724H16.8769C16.9435 24.7611 17.1954 24.4816 17.6404 24.4816H17.6402ZM17.6528 23.9263C16.811 23.9263 16.2222 24.5336 16.2222 25.4219C16.2222 26.3275 16.8347 26.9175 17.6946 26.9175C18.1272 26.9175 18.5234 26.8104 18.872 26.5184L18.566 26.0594C18.3252 26.2503 18.0186 26.3573 17.7303 26.3573C17.3278 26.3573 16.9614 26.1725 16.8713 25.6598H19.004C19.0101 25.5827 19.0164 25.505 19.0164 25.4217C19.0101 24.5338 18.4564 23.9261 17.6525 23.9261L17.6528 23.9263ZM25.1932 25.4217C25.1932 24.9211 25.524 24.5098 26.0645 24.5098C26.5811 24.5098 26.9297 24.9034 26.9297 25.4217C26.9297 25.94 26.5811 26.3336 26.0645 26.3336C25.524 26.3336 25.193 25.9223 25.193 25.4217H25.1932ZM27.5184 25.4217V23.9981H26.8942V24.3452C26.6954 24.0887 26.3956 23.9279 25.987 23.9279C25.182 23.9279 24.5503 24.5539 24.5503 25.4234C24.5503 26.293 25.1816 26.919 25.987 26.919C26.3956 26.919 26.6954 26.758 26.8942 26.5017V26.8475H27.5186V25.4227L27.5184 25.4217ZM21.6661 25.4217C21.6661 26.2857 22.2726 26.9173 23.1984 26.9173C23.631 26.9173 23.9192 26.8219 24.2309 26.5777L23.9309 26.0771C23.6964 26.2442 23.4502 26.3336 23.1784 26.3336C22.6798 26.3275 22.3132 25.97 22.3132 25.4217C22.3132 24.8734 22.6798 24.5161 23.1784 24.5098C23.4495 24.5098 23.6957 24.5992 23.9309 24.7663L24.2309 24.2657C23.9187 24.0216 23.6305 23.9261 23.1984 23.9261C22.2726 23.9261 21.6661 24.5576 21.6661 25.4217ZM29.7178 23.9261C29.3575 23.9261 29.1228 24.0932 28.9606 24.3434V23.9981H28.3416V26.846H28.9669V25.2496C28.9669 24.7783 29.1711 24.5164 29.5794 24.5164C29.7131 24.5145 29.8458 24.5389 29.97 24.5881L30.1625 24.0044C30.0243 23.9504 29.844 23.9266 29.7175 23.9266L29.7178 23.9261ZM12.9763 24.2246C12.6758 24.0281 12.2618 23.9266 11.805 23.9266C11.0773 23.9266 10.6089 24.2725 10.6089 24.8383C10.6089 25.3027 10.9577 25.5892 11.5999 25.6785L11.8949 25.7202C12.2374 25.7679 12.3991 25.8572 12.3991 26.0181C12.3991 26.2383 12.1716 26.3639 11.7444 26.3639C11.3118 26.3639 10.9997 26.2269 10.7891 26.066L10.4957 26.5489C10.8381 26.7991 11.2707 26.9185 11.7392 26.9185C12.5687 26.9185 13.0494 26.5312 13.0494 25.989C13.0494 25.4883 12.6711 25.2265 12.046 25.1371L11.7516 25.0948C11.4812 25.0601 11.2646 25.0061 11.2646 24.8152C11.2646 24.607 11.4688 24.4817 11.8115 24.4817C12.1781 24.4817 12.533 24.6188 12.7069 24.7259L12.9773 24.2253L12.9763 24.2246ZM21.0352 23.9272C20.6749 23.9272 20.4402 24.0943 20.2787 24.3445V23.9981H19.6597V26.846H20.2843V25.2496C20.2843 24.7783 20.4885 24.5164 20.8968 24.5164C21.0305 24.5145 21.1632 24.5389 21.2874 24.5881L21.4799 24.0044C21.3416 23.9504 21.1614 23.9266 21.0348 23.9266L21.0352 23.9272ZM15.7054 23.9981H14.6841V23.1342H14.0527V23.9981H13.4701V24.5642H14.0527V25.8633C14.0527 26.5241 14.3113 26.9176 15.0502 26.9176C15.3213 26.9176 15.6335 26.8344 15.8316 26.6974L15.6512 26.1672C15.4648 26.2742 15.2605 26.3282 15.0982 26.3282C14.7859 26.3282 14.6841 26.1373 14.6841 25.8515V24.5647H15.7054V23.9981ZM6.36758 26.8467V25.0594C6.36758 24.3863 5.93498 23.9334 5.2376 23.9273C4.87098 23.9213 4.4928 24.0344 4.22802 24.434C4.02993 24.1182 3.71773 23.9273 3.27883 23.9273C2.97205 23.9273 2.67228 24.0167 2.4376 24.3502V23.9981H1.8125V26.846H2.4425V25.2669C2.4425 24.7726 2.719 24.5098 3.146 24.5098C3.56075 24.5098 3.77058 24.7779 3.77058 25.2607V26.8456H4.40197V25.2666C4.40197 24.7722 4.6902 24.5095 5.10478 24.5095C5.53125 24.5095 5.73478 24.7776 5.73478 25.2603V26.8453L6.36758 26.8467Z" fill="#58677D"/>
<path d="M34.6665 17.3734V16.9569H34.5571L34.4306 17.2427L34.3047 16.9569H34.195V17.3734H34.2727V17.0596L34.391 17.3303H34.4715L34.5898 17.0589V17.3734H34.6668H34.6665ZM33.9726 17.3734V17.0282H34.1126V16.958H33.7549V17.0282H33.8949V17.3734H33.9719H33.9726Z" fill="#F79410"/>
<path opacity="0.5" d="M22.2351 19.1594H12.77V2.29309H22.2352L22.2351 19.1594Z" fill="#58677D"/>
<path d="M13.37 10.7259C13.37 7.30461 14.9856 4.25687 17.5014 2.29278C15.5971 0.803869 13.2417 -0.00421274 10.8166 -0.00065972C4.8426 -0.00065972 0 4.80173 0 10.7259C0 16.6501 4.8426 21.4525 10.8166 21.4525C13.2418 21.4561 15.5972 20.648 17.5016 19.1591C14.986 17.1954 13.37 14.1474 13.37 10.7259Z" fill="#58677D"/>
<path d="M35.0044 10.7266C35.0044 16.6508 30.1618 21.4532 24.1878 21.4532C21.7624 21.4567 19.4067 20.6487 17.502 19.1598C20.0185 17.1957 21.6341 14.1481 21.6341 10.7266C21.6341 7.30511 20.0185 4.25754 17.502 2.29345C19.4066 0.804585 21.7623 -0.00347908 24.1877 1.12597e-05C30.1616 1.12597e-05 35.0042 4.8024 35.0042 10.7266" fill="#58677D"/>
</g>
<defs>
<clipPath id="clip0">
<rect width="35" height="27" fill="white"/>
</clipPath>
</defs>
</svg>
