<svg width="43" height="15" viewBox="0 0 43 15" fill="none" xmlns="http://www.w3.org/2000/svg">
<path d="M18.6462 14.2307H15.1439L17.3328 0.778699H20.8354L18.6462 14.2307ZM12.1976 0.778699L8.85872 10.0311L8.46363 8.0387L8.46399 8.03942L7.28553 1.9899C7.28553 1.9899 7.14303 0.778699 5.62418 0.778699H0.104321L0.0395508 1.00647C0.0395508 1.00647 1.72753 1.35767 3.70302 2.54404L6.74578 14.2311H10.3949L15.9669 0.778699H12.1976ZM39.7447 14.2307H42.9606L40.1567 0.778339H37.3414C36.0413 0.778339 35.7247 1.78084 35.7247 1.78084L30.5013 14.2307H34.1522L34.8823 12.2326H39.3345L39.7447 14.2307ZM35.8909 9.47228L37.7311 4.43821L38.7663 9.47228H35.8909ZM30.7751 4.0136L31.2749 1.12486C31.2749 1.12486 29.7327 0.53833 28.125 0.53833C26.387 0.53833 22.2597 1.29794 22.2597 4.99163C22.2597 8.4669 27.1038 8.51009 27.1038 10.3355C27.1038 12.161 22.7588 11.8339 21.3248 10.6828L20.8041 13.7032C20.8041 13.7032 22.368 14.4628 24.7573 14.4628C27.1473 14.4628 30.7528 13.2253 30.7528 9.8573C30.7528 6.35972 25.8652 6.03407 25.8652 4.51341C25.8656 2.9924 29.2764 3.18778 30.7751 4.0136Z" fill="#58677D"/>
</svg>
