<svg width="45" height="19" viewBox="0 0 45 19" fill="none" xmlns="http://www.w3.org/2000/svg">
<g clip-path="url(#clip0)">
<path d="M8.52869 2.44922C9.05237 1.78125 9.42644 0.890625 9.31422 0C8.52869 0.0371094 7.59353 0.519531 7.03243 1.15039C6.54615 1.70703 6.09728 2.63477 6.2095 3.48828C7.10725 3.59961 7.96759 3.11719 8.52869 2.44922ZM9.31422 3.71094C8.0424 3.63672 6.95762 4.41602 6.35912 4.41602C5.76062 4.41602 4.82547 3.74805 3.8155 3.74805C2.50628 3.78516 1.30928 4.49023 0.635963 5.67773C-0.710662 8.01562 0.2619 11.4668 1.60853 13.3594C2.24443 14.2871 3.02996 15.3262 4.03993 15.2891C5.0125 15.252 5.38656 14.6582 6.54615 14.6582C7.70575 14.6582 8.0424 15.2891 9.08978 15.252C10.1372 15.2148 10.8105 14.3242 11.4464 13.3594C12.1945 12.2832 12.4938 11.2441 12.4938 11.207C12.4563 11.1699 10.4364 10.4277 10.4364 8.12695C10.399 6.19727 12.0075 5.26953 12.0823 5.23242C11.2219 3.89648 9.8005 3.74805 9.31422 3.71094Z" fill="#1A66B0"/>
<path d="M20.3122 1.07617C23.0802 1.07617 24.988 2.96875 24.988 5.67773C24.988 8.42383 23.0428 10.3164 20.2374 10.3164H17.2075V15.1035H15.0005V1.07617H20.3122ZM17.2075 8.49805H19.7137C21.6214 8.49805 22.7062 7.45898 22.7062 5.71484C22.7062 3.93359 21.6214 2.93164 19.7137 2.93164H17.1701V8.49805H17.2075ZM25.5491 12.2461C25.5491 10.4648 26.9331 9.35156 29.4019 9.20312L32.2448 9.05469V8.27539C32.2448 7.125 31.4592 6.45703 30.1874 6.45703C28.953 6.45703 28.2049 7.05078 28.0179 7.94141H25.9979C26.1102 6.08594 27.7186 4.71289 30.2622 4.71289C32.7685 4.71289 34.3769 6.01172 34.3769 8.08984V15.1406H32.357V13.4707H32.3196C31.7211 14.6211 30.4119 15.3262 29.0652 15.3262C26.9705 15.3262 25.5491 14.0645 25.5491 12.2461ZM32.2448 11.3184V10.502L29.7012 10.6504C28.4293 10.7246 27.7186 11.2812 27.7186 12.1719C27.7186 13.0625 28.4667 13.6562 29.5889 13.6562C31.0852 13.6562 32.2448 12.6543 32.2448 11.3184ZM36.2472 18.9258V17.2187C36.3969 17.2559 36.7709 17.2559 36.9206 17.2559C37.8931 17.2559 38.4168 16.8477 38.7535 15.8086C38.7535 15.7715 38.9405 15.1777 38.9405 15.1777L35.1999 4.93555H37.4817L40.1001 13.2852H40.1375L42.7559 4.93555H45.0003L41.1475 15.7344C40.2497 18.2207 39.2397 19 37.1076 19C36.958 18.9629 36.4343 18.9629 36.2472 18.9258Z" fill="#1A66B0"/>
</g>
<defs>
<clipPath id="clip0">
<rect width="45" height="19" fill="white"/>
</clipPath>
</defs>
</svg>
