<svg width="23" height="23" viewBox="0 0 23 23" fill="none" xmlns="http://www.w3.org/2000/svg">
<path d="M10.8934 0C11.2753 0 11.657 0 12.039 0C12.0661 0.0283069 12.1021 0.0179726 12.1342 0.0197699C12.9326 0.0611069 13.7174 0.19006 14.4886 0.398543C16.3598 0.903798 18.0095 1.81276 19.4066 3.15622C21.5114 5.18038 22.6942 7.65409 22.9605 10.5645C22.9719 10.689 22.958 10.8168 22.9998 10.9384C22.9998 11.3203 22.9998 11.702 22.9998 12.0839C22.9672 12.1041 22.9798 12.1374 22.978 12.1652C22.9425 12.7823 22.8585 13.3932 22.7214 13.9955C22.231 16.1518 21.2257 18.0321 19.658 19.5951C17.6657 21.5815 15.259 22.6987 12.4559 22.96C12.3467 22.9701 12.2337 22.9548 12.1286 22.9998C11.7017 22.9998 11.2751 22.9998 10.8483 22.9998C10.8368 22.9726 10.8119 22.9793 10.7908 22.9773C10.5636 22.9555 10.3361 22.9384 10.1098 22.9113C8.85601 22.761 7.65903 22.4105 6.52159 21.8644C4.93798 21.1041 3.59475 20.037 2.50583 18.658C1.0633 16.8307 0.23971 14.7548 0.0388658 12.433C0.0307781 12.3391 0.0467288 12.2405 0 12.1513C0 11.7395 0 11.3277 0 10.9159C0.0294302 10.8995 0.0202192 10.8703 0.0215671 10.8458C0.0485261 10.3372 0.11143 9.83259 0.210055 9.3334C0.643869 7.13648 1.60877 5.20622 3.16116 3.58846C5.17611 1.48858 7.6433 0.309803 10.5432 0.0395398C10.6598 0.0285315 10.7804 0.0440329 10.8934 0ZM14.9705 11.7116C15.2909 11.6312 15.5771 11.5186 15.813 11.3144C16.4908 10.7276 16.6741 9.96065 16.5597 9.11099C16.4831 8.54216 16.136 8.1243 15.6919 7.78304C15.2295 7.42786 14.7034 7.19646 14.1584 7.00505C14.064 6.9718 14.0445 6.93518 14.069 6.83948C14.2269 6.22414 14.3763 5.60656 14.5345 4.99122C14.5574 4.90248 14.5356 4.87597 14.4531 4.85642C14.1004 4.77308 13.7484 4.68681 13.3977 4.59492C13.315 4.57336 13.2896 4.59155 13.2696 4.6731C13.1241 5.27227 12.9711 5.86963 12.8262 6.46902C12.8023 6.56742 12.7704 6.58943 12.6698 6.56225C12.4101 6.49238 12.147 6.43487 11.8844 6.37713C11.8078 6.36028 11.7835 6.33872 11.8058 6.25177C11.963 5.64003 12.1113 5.02604 12.2674 4.41407C12.2874 4.33589 12.2683 4.31096 12.1958 4.29366C11.8435 4.20896 11.4912 4.12337 11.1408 4.03126C11.0491 4.00722 11.0204 4.02834 10.9983 4.11977C10.8478 4.74073 10.6892 5.35988 10.5369 5.98061C10.5187 6.05475 10.4942 6.08059 10.4163 6.05834C10.305 6.02644 10.1905 6.00645 10.0781 5.97836C9.40776 5.81055 8.73716 5.6434 8.06791 5.47131C7.98456 5.44997 7.95895 5.46884 7.93985 5.54904C7.86077 5.88356 7.77518 6.21673 7.69138 6.55012C7.6296 6.79545 7.63005 6.7923 7.87987 6.85341C8.15552 6.9208 8.43635 6.9709 8.70122 7.07604C9.03663 7.20904 9.19838 7.50671 9.11593 7.83741C8.65808 9.67578 8.19978 11.5142 7.74058 13.3523C7.6606 13.6724 7.45369 13.8048 7.12906 13.7338C6.85902 13.6745 6.59146 13.6041 6.32456 13.5318C6.24751 13.5109 6.21246 13.5262 6.18101 13.6001C6.00285 14.0198 5.82223 14.4385 5.63689 14.855C5.60049 14.937 5.61846 14.9593 5.70024 14.9795C6.48003 15.1729 7.25869 15.3713 8.03848 15.565C8.11621 15.5843 8.138 15.6056 8.11598 15.6914C7.95513 16.3176 7.80304 16.9462 7.64285 17.5725C7.61882 17.6664 7.63567 17.6988 7.73204 17.7208C8.07802 17.7996 8.42309 17.8843 8.76569 17.9767C8.8605 18.0023 8.88589 17.9794 8.90768 17.8906C9.05775 17.2733 9.21546 16.6577 9.36463 16.0401C9.38732 15.9458 9.42282 15.9325 9.50931 15.9568C9.76475 16.028 10.0213 16.0965 10.2799 16.1554C10.3812 16.1785 10.3978 16.2162 10.3727 16.3131C10.215 16.9246 10.0651 17.5381 9.90785 18.1499C9.88584 18.2352 9.90673 18.2633 9.98895 18.2829C10.3381 18.3653 10.6867 18.4502 11.0332 18.5428C11.125 18.5673 11.1543 18.5491 11.1765 18.4579C11.3257 17.8441 11.4832 17.2326 11.6319 16.6186C11.6575 16.5128 11.6865 16.471 11.8071 16.4998C11.9884 16.5429 12.1751 16.5651 12.3604 16.5892C12.9264 16.6624 13.4932 16.697 14.0602 16.5986C14.6376 16.4986 15.1437 16.2614 15.5346 15.8134C15.9343 15.3556 16.1459 14.8085 16.2708 14.2229C16.4741 13.2696 16.167 12.5035 15.3614 11.954C15.2412 11.8723 15.1147 11.8008 14.9705 11.7116Z" fill="#1A66B0"/>
<path d="M14.9706 11.7115C15.1149 11.8007 15.2413 11.8723 15.3611 11.9539C16.1667 12.5034 16.4738 13.2695 16.2705 14.2227C16.1456 14.8082 15.9337 15.3552 15.5343 15.8133C15.1432 16.2615 14.6372 16.4985 14.0599 16.5985C13.4928 16.6966 12.9262 16.662 12.3601 16.589C12.1748 16.565 11.9881 16.5427 11.8068 16.4996C11.6861 16.4709 11.6571 16.5126 11.6315 16.6185C11.483 17.2322 11.3253 17.844 11.1762 18.4577C11.1539 18.5489 11.1247 18.5674 11.0328 18.5426C10.6864 18.4501 10.3377 18.3652 9.98861 18.2827C9.90639 18.2634 9.88549 18.2351 9.90751 18.1497C10.0648 17.538 10.2146 16.9244 10.3723 16.3129C10.3973 16.2159 10.3809 16.1781 10.2795 16.1552C10.021 16.0964 9.7644 16.0278 9.50897 15.9566C9.42225 15.9324 9.38698 15.9458 9.36429 16.04C9.21512 16.6575 9.05741 17.2731 8.90733 17.8905C8.88577 17.9794 8.86016 18.0021 8.76535 17.9765C8.42275 17.8842 8.07767 17.7995 7.7317 17.7206C7.63532 17.6986 7.61847 17.6663 7.64251 17.5724C7.80291 16.946 7.95478 16.3174 8.11564 15.6913C8.13766 15.6052 8.11564 15.5839 8.03813 15.5648C7.25834 15.3712 6.47968 15.1728 5.69989 14.9794C5.61834 14.9591 5.60014 14.9369 5.63654 14.8549C5.82188 14.4384 6.00251 14.0196 6.18066 13.6C6.21189 13.5263 6.24716 13.5108 6.32422 13.5317C6.59111 13.604 6.85868 13.6743 7.12872 13.7336C7.45335 13.8048 7.66026 13.6723 7.74024 13.3522C8.19921 11.514 8.65774 9.67563 9.11559 7.83726C9.19782 7.50656 9.03629 7.20912 8.70087 7.0759C8.43578 6.97076 8.15495 6.92066 7.87952 6.85326C7.6297 6.79215 7.62948 6.7953 7.69104 6.54997C7.77483 6.21658 7.86043 5.88341 7.93951 5.5489C7.9586 5.46869 7.98421 5.4496 8.06756 5.47117C8.73682 5.64325 9.40742 5.8104 10.0778 5.97822C10.1901 6.0063 10.3047 6.0263 10.4159 6.0582C10.4936 6.08066 10.5184 6.0546 10.5366 5.98046C10.6889 5.35974 10.8473 4.74058 10.998 4.11963C11.0202 4.02841 11.049 4.00707 11.1404 4.03111C11.4909 4.12322 11.8432 4.20881 12.1954 4.29351C12.268 4.31103 12.2871 4.33597 12.2671 4.41393C12.111 5.02589 11.9627 5.63988 11.8054 6.25163C11.7832 6.33857 11.8074 6.36014 11.8841 6.37699C12.1469 6.43472 12.41 6.49224 12.6695 6.5621C12.7701 6.58929 12.802 6.56727 12.8258 6.46887C12.9707 5.86948 13.1237 5.27212 13.2693 4.67296C13.2891 4.59141 13.3145 4.57321 13.3973 4.59478C13.748 4.68666 14.1001 4.77293 14.4528 4.85628C14.5355 4.87582 14.557 4.90233 14.5341 4.99107C14.3757 5.60641 14.2263 6.22399 14.0686 6.83933C14.0441 6.93504 14.0637 6.97165 14.158 7.0049C14.7031 7.19631 15.2292 7.42793 15.6916 7.78289C16.1357 8.12415 16.4828 8.54201 16.5594 9.11084C16.6738 9.9605 16.4904 10.7275 15.8126 11.3143C15.5772 11.5185 15.291 11.6311 14.9706 11.7115ZM12.1002 14.8284C12.2577 14.8302 12.4145 14.825 12.5702 14.8003C12.9379 14.7419 13.2767 14.6242 13.5038 14.3047C13.7815 13.9143 13.9046 13.2198 13.2843 12.6811C13.0125 12.445 12.698 12.283 12.3666 12.1511C11.7845 11.9195 11.1741 11.7899 10.5669 11.647C10.477 11.6259 10.4844 11.6847 10.4734 11.729C10.2575 12.5912 10.0446 13.4544 9.82641 14.3159C9.80619 14.3957 9.82708 14.4213 9.8992 14.4384C10.0953 14.4853 10.2899 14.5388 10.4858 14.5862C11.0164 14.7145 11.5507 14.8234 12.1002 14.8284ZM12.7335 10.7037C12.8269 10.7025 12.984 10.6956 13.1388 10.6664C13.5822 10.5826 13.9172 10.362 14.0563 9.91175C14.1913 9.47434 14.1091 9.08434 13.7775 8.75723C13.5995 8.58155 13.3888 8.45507 13.1639 8.34971C12.6382 8.10348 12.0746 7.98643 11.5138 7.85748C11.4291 7.83793 11.4298 7.89028 11.4177 7.93836C11.3287 8.29354 11.2409 8.64895 11.1526 9.00436C11.0479 9.42492 10.943 9.84525 10.8387 10.266C10.8279 10.3094 10.7949 10.3572 10.8758 10.3786C11.4657 10.5334 12.0541 10.6931 12.7335 10.7037Z" fill="#51A8FA"/>
<path d="M12.1002 14.8284C11.5506 14.8237 11.0164 14.7147 10.4855 14.5862C10.2896 14.5388 10.0951 14.4853 9.89895 14.4384C9.82684 14.4211 9.80594 14.3957 9.82616 14.316C10.0443 13.4542 10.2575 12.5913 10.4732 11.729C10.4842 11.6848 10.4768 11.6259 10.5666 11.647C11.1737 11.7899 11.7843 11.9195 12.3664 12.1511C12.6977 12.283 13.0123 12.445 13.2841 12.6811C13.9044 13.2201 13.7813 13.9145 13.5036 14.3047C13.2765 14.624 12.9379 14.7419 12.5699 14.8003C12.4145 14.825 12.2576 14.8302 12.1002 14.8284Z" fill="#1A66B0"/>
<path d="M12.7335 10.7036C12.0539 10.6931 11.4657 10.5333 10.8762 10.3783C10.7951 10.357 10.8284 10.3091 10.8392 10.2658C10.9432 9.84499 11.0483 9.42466 11.153 9.0041C11.2413 8.64869 11.3292 8.29329 11.4181 7.9381C11.4302 7.89003 11.4296 7.83768 11.5143 7.85723C12.075 7.98618 12.6387 8.10323 13.1644 8.34945C13.3892 8.45482 13.6 8.5813 13.7779 8.75698C14.1093 9.08408 14.1917 9.47409 14.0567 9.91149C13.9176 10.3617 13.5827 10.5823 13.1392 10.6661C12.984 10.6955 12.8269 10.7025 12.7335 10.7036Z" fill="#1A66B0"/>
</svg>
