<svg width="13" height="23" viewBox="0 0 13 23" fill="none" xmlns="http://www.w3.org/2000/svg">
<path d="M0.0605469 11.6322C0.170794 11.5677 0.208047 11.4439 0.267449 11.3407C2.29318 7.81051 4.31689 4.27921 6.34212 0.748969C6.38894 0.666969 6.44834 0.592905 6.50221 0.515137L6.5007 0.540001C6.58527 0.739976 6.62302 0.950531 6.62302 1.16849C6.62554 3.54227 6.62604 5.91604 6.62302 8.28981C6.62302 8.36917 6.62 8.44799 6.60641 8.52523C6.60138 8.55486 6.59131 8.58342 6.57621 8.60935C6.4428 8.80033 6.24899 8.90137 6.04964 8.99501C4.82786 9.57113 3.6096 10.1562 2.39084 10.7392C1.78121 11.0307 1.16906 11.3154 0.563455 11.6164C0.419983 11.6878 0.265436 11.7053 0.112902 11.7354C0.0957857 11.7359 0.0781663 11.7365 0.0610503 11.7375C0.0605469 11.7026 0.0605469 11.6672 0.0605469 11.6322Z" fill="#1A66B0"/>
<path opacity="0.6" d="M12.9012 11.6797C12.9148 11.6739 12.9279 11.6755 12.9395 11.685C12.9395 11.7025 12.9395 11.7205 12.9395 11.7379C12.3762 12.0257 11.8536 12.3892 11.3145 12.7219C9.79315 13.6604 8.27688 14.6069 6.75808 15.5496C6.69364 15.5893 6.62568 15.6221 6.55923 15.6581C6.42684 15.6469 6.40821 15.5385 6.39059 15.4343C6.37448 15.339 6.3765 15.2412 6.3765 15.1444C6.37498 13.1541 6.37549 11.1634 6.37599 9.17317C6.37599 8.97849 6.37448 8.7838 6.50235 8.62139L6.50336 8.62245C6.60706 8.52511 6.70623 8.587 6.8054 8.6325C7.86055 9.11974 8.90564 9.63079 9.95475 10.1313C10.7688 10.519 11.5823 10.9073 12.3953 11.2967C12.5931 11.3909 12.7557 11.5184 12.9012 11.6797Z" fill="#1A66B0"/>
<path opacity="0.3" d="M6.50211 8.62109C6.50161 10.8563 6.5006 13.092 6.5001 15.3271C6.5001 15.4409 6.48852 15.5578 6.55849 15.6578C6.47744 15.7498 6.42006 15.6567 6.36468 15.6223C4.28005 14.3283 2.19643 13.0322 0.112305 11.736C0.182782 11.6107 0.313166 11.5847 0.425427 11.5308C2.45065 10.56 4.47638 9.59081 6.50211 8.62109Z" fill="#1A66B0"/>
<path d="M6.5023 22.4846C6.12423 22.0127 5.80859 21.4927 5.4693 20.9917C3.72598 18.4158 1.98619 15.8373 0.245388 13.2599C0.208639 13.2049 0.176924 13.1461 0.171387 13.0557C2.28219 14.3629 4.3925 15.6701 6.5033 16.9774C6.62312 17.0552 6.61959 17.1848 6.62009 17.3059C6.62765 18.8692 6.62916 20.4325 6.62009 21.9953C6.61909 22.1603 6.57126 22.3143 6.50028 22.4603L6.5023 22.4846Z" fill="#1A66B0"/>
<path d="M6.50049 22.4607C6.5015 20.6329 6.5025 18.8051 6.50351 16.9778C8.50407 15.7372 10.5051 14.4966 12.5062 13.2571C12.6139 13.1904 12.7242 13.128 12.8329 13.0635C12.8485 13.1645 12.777 13.2259 12.7302 13.2952C10.7045 16.2953 8.67775 19.295 6.6495 22.2935C6.60772 22.3549 6.58456 22.439 6.50049 22.4607Z" fill="#1A66B0"/>
<path d="M12.9009 11.6789C10.7684 10.6595 8.63596 9.64002 6.50351 8.62058C6.5025 5.92674 6.5015 3.2329 6.50049 0.539062C6.58154 0.568688 6.60016 0.653334 6.63742 0.718405C8.69738 4.30843 10.7563 7.8995 12.8143 11.4906C12.848 11.5504 12.8722 11.616 12.9009 11.6789Z" fill="#1A66B0"/>
</svg>
