<svg width="53" height="21" viewBox="0 0 53 21" fill="none" xmlns="http://www.w3.org/2000/svg">
<g clip-path="url(#clip0)">
<path d="M25.0152 10.2636V16.4265H23.062V1.21329H28.2423C29.4918 1.18903 30.6929 1.66216 31.5906 2.53565C32.5005 3.34847 33.01 4.52525 32.9858 5.73842C33.01 6.96372 32.5005 8.1405 31.5906 8.96546C30.6807 9.82681 29.5646 10.2636 28.2423 10.2636H25.0152ZM25.0152 3.08158V8.39527H28.2908C29.0187 8.41953 29.7223 8.12837 30.2197 7.60671C31.2509 6.61191 31.2631 4.97412 30.2682 3.94293C30.2561 3.9308 30.2319 3.90653 30.2197 3.8944C29.7223 3.3606 29.0187 3.06944 28.2908 3.09371L25.0152 3.08158Z" fill="#1A66B0"/>
<path d="M37.4992 5.67725C38.9429 5.67725 40.0832 6.06546 40.9203 6.82976C41.7574 7.60619 42.1699 8.66165 42.1699 10.0083V16.4259H40.3016V14.9823H40.2167C39.4039 16.1712 38.3363 16.7656 36.9897 16.7656C35.8493 16.7656 34.8787 16.4259 34.1144 15.7466C33.3623 15.1157 32.9377 14.1816 32.9619 13.1989C32.9619 12.1192 33.3744 11.27 34.1872 10.627C35 9.984 36.0919 9.66858 37.4507 9.66858C38.6153 9.66858 39.5616 9.88695 40.3137 10.2994V9.85056C40.3137 9.18331 40.0226 8.55246 39.513 8.12785C38.9914 7.66685 38.3241 7.41208 37.6326 7.41208C36.5408 7.41208 35.6794 7.87309 35.0364 8.7951L33.3137 7.71537C34.2479 6.35662 35.643 5.67725 37.4992 5.67725ZM34.9758 13.2353C34.9758 13.7448 35.2184 14.218 35.6188 14.5091C36.0555 14.8488 36.5893 15.0308 37.1352 15.0187C37.9602 15.0187 38.7488 14.6911 39.3311 14.1088C39.9741 13.5022 40.3016 12.7864 40.3016 11.9615C39.695 11.4762 38.8458 11.2336 37.754 11.2336C36.9654 11.2336 36.2981 11.4277 35.7643 11.8038C35.2427 12.192 34.9758 12.6651 34.9758 13.2353Z" fill="#1A66B0"/>
<path d="M52.8944 6.01709L46.3675 21.0119H44.3536L46.78 15.771L42.4854 6.02922H44.6084L47.702 13.5024H47.7505L50.7713 6.02922H52.8944V6.01709Z" fill="#1A66B0"/>
<path d="M17.1179 8.92895C17.1179 8.33449 17.0694 7.74004 16.9723 7.15771H8.73486V10.5182H13.4541C13.26 11.5979 12.6291 12.5685 11.7071 13.175V15.3588H14.5217C16.1716 13.8423 17.1179 11.5979 17.1179 8.92895Z" fill="#1A66B0"/>
<path opacity="0.3" d="M8.73478 17.4698C11.0883 17.4698 13.0779 16.6934 14.5216 15.3589L11.707 13.1752C10.9185 13.709 9.91155 14.0123 8.73478 14.0123C6.45401 14.0123 4.52507 12.4716 3.83356 10.4092H0.934082V12.6657C2.41415 15.6137 5.43495 17.4698 8.73478 17.4698Z" fill="#1A66B0"/>
<path d="M3.83373 10.4091C3.46977 9.3294 3.46977 8.15263 3.83373 7.06077V4.81641H0.934245C-0.315321 7.27914 -0.315321 10.1908 0.934245 12.6535L3.83373 10.4091Z" fill="#1A66B0"/>
<path opacity="0.4" d="M8.73478 3.45758C9.98434 3.43332 11.1854 3.90645 12.0831 4.7678L14.5701 2.2808C12.993 0.788601 10.9064 -0.0242238 8.73478 3.96658e-05C5.43495 3.96658e-05 2.41415 1.86832 0.934082 4.81633L3.83356 7.07283C4.52507 4.99831 6.45401 3.45758 8.73478 3.45758Z" fill="#1A66B0"/>
</g>
<defs>
<clipPath id="clip0">
<rect width="52.8943" height="21" fill="white"/>
</clipPath>
</defs>
</svg>
