<svg width="31" height="24" viewBox="0 0 31 24" fill="none" xmlns="http://www.w3.org/2000/svg">
<g clip-path="url(#clip0)">
<path d="M30.3894 23.6743V23.736H30.4472C30.4581 23.7362 30.4688 23.7335 30.4782 23.7282C30.482 23.7255 30.4851 23.722 30.4871 23.7178C30.4891 23.7137 30.4901 23.7092 30.4899 23.7046C30.4901 23.7001 30.4891 23.6956 30.4871 23.6916C30.485 23.6875 30.482 23.6841 30.4782 23.6816C30.4689 23.676 30.4581 23.6733 30.4472 23.6737H30.3894V23.6743ZM30.4479 23.6307C30.4726 23.6292 30.4972 23.6363 30.5173 23.6507C30.5254 23.6573 30.5318 23.6657 30.536 23.6752C30.5402 23.6846 30.5422 23.695 30.5416 23.7053C30.542 23.7143 30.5405 23.7232 30.5371 23.7314C30.5337 23.7397 30.5286 23.7472 30.5221 23.7533C30.5066 23.7667 30.4871 23.7748 30.4666 23.7763L30.5441 23.8642H30.4844L30.4131 23.7769H30.3901V23.8642H30.3401V23.6308H30.4486L30.4479 23.6307ZM30.4324 23.9447C30.4585 23.945 30.4845 23.9397 30.5085 23.9293C30.5316 23.9194 30.5526 23.9052 30.5705 23.8875C30.5883 23.8698 30.6026 23.8489 30.6125 23.8258C30.6328 23.7769 30.6328 23.722 30.6125 23.6731C30.6024 23.6501 30.5882 23.6292 30.5705 23.6114C30.5526 23.5937 30.5316 23.5795 30.5085 23.5696C30.4843 23.5598 30.4585 23.5548 30.4324 23.5551C30.4058 23.5549 30.3795 23.5598 30.3549 23.5696C30.3312 23.5793 30.3097 23.5935 30.2915 23.6114C30.2641 23.6394 30.2455 23.6748 30.2382 23.7132C30.2308 23.7516 30.2349 23.7913 30.2501 23.8273C30.2595 23.8505 30.2736 23.8715 30.2915 23.889C30.3097 23.9069 30.3312 23.9211 30.3549 23.9308C30.3794 23.9413 30.4057 23.9465 30.4324 23.9463V23.9447ZM30.4324 23.499C30.5005 23.4989 30.5659 23.5255 30.6145 23.573C30.6379 23.5958 30.6566 23.623 30.6694 23.6531C30.6826 23.6839 30.6894 23.7171 30.6894 23.7506C30.6894 23.7841 30.6826 23.8173 30.6694 23.8482C30.6563 23.878 30.6377 23.9052 30.6145 23.9282C30.5907 23.9509 30.563 23.9692 30.5328 23.9822C30.5011 23.9956 30.4669 24.0025 30.4324 24.0023C30.3975 24.0025 30.3629 23.9957 30.3307 23.9822C30.3001 23.9695 30.2722 23.9512 30.2484 23.9282C30.2252 23.9043 30.2069 23.8763 30.1943 23.8455C30.181 23.8147 30.1742 23.7815 30.1742 23.748C30.1742 23.7145 30.181 23.6813 30.1943 23.6504C30.2071 23.6204 30.2257 23.5932 30.2492 23.5704C30.2726 23.547 30.3006 23.5287 30.3315 23.5164C30.3636 23.5029 30.3982 23.4961 30.4331 23.4963L30.4324 23.499ZM6.69877 22.5977C6.69877 22.1527 6.99172 21.7872 7.47051 21.7872C7.92807 21.7872 8.23683 22.137 8.23683 22.5977C8.23683 23.0584 7.92807 23.4083 7.47051 23.4083C6.99172 23.4083 6.69877 23.0427 6.69877 22.5977ZM8.75841 22.5977V21.3314H8.20521V21.6399C8.02975 21.4119 7.76362 21.2689 7.40169 21.2689C6.68869 21.2689 6.12914 21.8254 6.12914 22.5983C6.12914 23.3713 6.68838 23.9278 7.40169 23.9278C7.76346 23.9278 8.02975 23.7846 8.20521 23.5568V23.8642H8.75779V22.5977H8.75841ZM27.4502 22.5977C27.4502 22.1527 27.7431 21.7872 28.2221 21.7872C28.6801 21.7872 28.9884 22.137 28.9884 22.5977C28.9884 23.0584 28.6801 23.4083 28.2221 23.4083C27.7433 23.4083 27.4502 23.0427 27.4502 22.5977ZM29.5104 22.5977V20.3149H28.9568V21.6399C28.7813 21.4119 28.5152 21.2689 28.1532 21.2689C27.4402 21.2689 26.8807 21.8254 26.8807 22.5983C26.8807 23.3713 27.4399 23.9278 28.1532 23.9278C28.5152 23.9278 28.7813 23.7846 28.9568 23.5568V23.8642H29.5104V22.5977ZM15.6243 21.7611C15.9808 21.7611 16.2097 21.9835 16.2682 22.3752H14.9482C15.0072 22.0096 15.2303 21.7611 15.6244 21.7611H15.6243ZM15.6354 21.2675C14.8899 21.2675 14.3683 21.8074 14.3683 22.597C14.3683 23.4019 14.9108 23.9264 15.6725 23.9264C16.0557 23.9264 16.4066 23.8312 16.7153 23.5716L16.4442 23.1636C16.231 23.3333 15.9594 23.4285 15.7041 23.4285C15.3476 23.4285 15.023 23.2642 14.9432 22.8084H16.8322C16.8376 22.7399 16.8432 22.6708 16.8432 22.5968C16.8376 21.8075 16.3472 21.2674 15.6351 21.2674L15.6354 21.2675ZM22.3141 22.5968C22.3141 22.1518 22.607 21.7863 23.0858 21.7863C23.5434 21.7863 23.8522 22.1361 23.8522 22.5968C23.8522 23.0575 23.5434 23.4073 23.0858 23.4073C22.607 23.4073 22.3139 23.0418 22.3139 22.5968H22.3141ZM24.3736 22.5968V21.3314H23.8207V21.6399C23.6446 21.4119 23.3791 21.2689 23.0172 21.2689C22.3042 21.2689 21.7446 21.8254 21.7446 22.5983C21.7446 23.3713 22.3039 23.9278 23.0172 23.9278C23.3791 23.9278 23.6446 23.7846 23.8207 23.5568V23.8642H24.3737V22.5977L24.3736 22.5968ZM19.1901 22.5968C19.1901 23.3648 19.7273 23.9262 20.5472 23.9262C20.9304 23.9262 21.1857 23.8414 21.4617 23.6244L21.1961 23.1794C20.9884 23.3279 20.7703 23.4073 20.5296 23.4073C20.088 23.4019 19.7633 23.0842 19.7633 22.5968C19.7633 22.1094 20.088 21.7918 20.5296 21.7863C20.7697 21.7863 20.9878 21.8657 21.1961 22.0142L21.4617 21.5692C21.1852 21.3522 20.9299 21.2674 20.5472 21.2674C19.7273 21.2674 19.1901 21.8287 19.1901 22.5968ZM26.3216 21.2674C26.0025 21.2674 25.7946 21.4159 25.6509 21.6383V21.3314H25.1027V23.8628H25.6565V22.4438C25.6565 22.0249 25.8374 21.7921 26.199 21.7921C26.3174 21.7904 26.435 21.8121 26.545 21.8558L26.7155 21.337C26.593 21.289 26.4334 21.2679 26.3213 21.2679L26.3216 21.2674ZM11.4934 21.5327C11.2272 21.3581 10.8605 21.2679 10.456 21.2679C9.81148 21.2679 9.39654 21.5753 9.39654 22.0782C9.39654 22.491 9.70546 22.7456 10.2743 22.8251L10.5356 22.8621C10.839 22.9045 10.9822 22.984 10.9822 23.1269C10.9822 23.3227 10.7807 23.4343 10.4023 23.4343C10.0192 23.4343 9.74266 23.3125 9.55619 23.1695L9.29626 23.5988C9.59959 23.8212 9.98275 23.9273 10.3977 23.9273C11.1324 23.9273 11.5582 23.583 11.5582 23.101C11.5582 22.656 11.2231 22.4233 10.6694 22.3438L10.4087 22.3062C10.1692 22.2754 9.97733 22.2274 9.97733 22.0577C9.97733 21.8726 10.1582 21.7613 10.4617 21.7613C10.7864 21.7613 11.1008 21.8831 11.2548 21.9783L11.4943 21.5333L11.4934 21.5327ZM18.6313 21.2683C18.3121 21.2683 18.1043 21.4168 17.9612 21.6393V21.3314H17.413V23.8628H17.9662V22.4438C17.9662 22.0249 18.1471 21.7921 18.5087 21.7921C18.6271 21.7904 18.7447 21.8121 18.8546 21.8558L19.0251 21.337C18.9027 21.289 18.743 21.2679 18.631 21.2679L18.6313 21.2683ZM13.9106 21.3314H13.006V20.5634H12.4468V21.3314H11.9308V21.8345H12.4468V22.9893C12.4468 23.5767 12.6759 23.9265 13.3303 23.9265C13.5704 23.9265 13.8469 23.8525 14.0224 23.7308L13.8626 23.2594C13.6975 23.3546 13.5166 23.4026 13.3728 23.4026C13.0962 23.4026 13.006 23.2329 13.006 22.9789V21.835H13.9106V21.3314ZM5.63996 23.8634V22.2747C5.63996 21.6764 5.2568 21.2739 4.63913 21.2685C4.3144 21.2631 3.97945 21.3636 3.74493 21.7189C3.56947 21.4381 3.29295 21.2685 2.90421 21.2685C2.6325 21.2685 2.36698 21.3479 2.15913 21.6444V21.3314H1.60547V23.8628H2.16347V22.4592C2.16347 22.0198 2.40837 21.7863 2.78657 21.7863C3.15392 21.7863 3.33976 22.0246 3.33976 22.4537V23.8625H3.899V22.4589C3.899 22.0195 4.15429 21.7859 4.52148 21.7859C4.89922 21.7859 5.07948 22.0243 5.07948 22.4534V23.8622L5.63996 23.8634Z" fill="#1A66B0"/>
<path d="M30.7049 15.4429V15.0728H30.608L30.4959 15.3268L30.3845 15.0728H30.2873V15.4429H30.3561V15.1641L30.4609 15.4047H30.5322L30.637 15.1634V15.4429H30.7052H30.7049ZM30.0903 15.4429V15.1361H30.2143V15.0737H29.8975V15.1361H30.0215V15.4429H30.0897H30.0903Z" fill="#1A66B0"/>
<path opacity="0.5" d="M19.6944 17.0304H11.311V2.03809H19.6945L19.6944 17.0304Z" fill="#499EFC"/>
<path d="M11.842 9.53428C11.842 6.49309 13.273 3.78399 15.5012 2.03813C13.8145 0.714659 11.7284 -0.00363615 9.5804 -0.000477911C4.28916 -0.000477911 0 4.26831 0 9.53428C0 14.8002 4.28916 19.069 9.5804 19.069C11.7284 19.0722 13.8147 18.3539 15.5014 17.0304C13.2733 15.2849 11.842 12.5756 11.842 9.53428Z" fill="#1A66B0"/>
<path d="M31.0041 9.53477C31.0041 14.8007 26.715 19.0695 21.4237 19.0695C19.2755 19.0727 17.189 18.3544 15.502 17.0309C17.7309 15.285 19.1618 12.5761 19.1618 9.53477C19.1618 6.49343 17.7309 3.78448 15.502 2.03862C17.189 0.715187 19.2754 -0.00309251 21.4236 1.00087e-05C26.7148 1.00087e-05 31.004 4.2688 31.004 9.53477" fill="#1A66B0"/>
</g>
<defs>
<clipPath id="clip0">
<rect width="31" height="24" fill="white"/>
</clipPath>
</defs>
</svg>
