<svg width="39" height="12" viewBox="0 0 39 12" fill="none" xmlns="http://www.w3.org/2000/svg">
<path d="M16.9069 11.8H13.7245L15.7135 0.207148H18.8961L16.9069 11.8ZM11.0474 0.207148L8.01351 8.18079L7.6545 6.46376L7.65483 6.46438L6.58403 1.25095C6.58403 1.25095 6.45455 0.207148 5.07445 0.207148H0.0588532L0 0.403442C0 0.403442 1.53378 0.7061 3.3288 1.72851L6.09359 11.8003H9.40931L14.4723 0.207148H11.0474ZM36.0779 11.8H39L36.4523 0.206838H33.8942C32.7129 0.206838 32.4251 1.07078 32.4251 1.07078L27.6789 11.8H30.9963L31.6597 10.078H35.7052L36.0779 11.8ZM32.5762 7.6992L34.2483 3.36088L35.1889 7.6992H32.5762ZM27.9278 2.99496L28.3819 0.505465C28.3819 0.505465 26.9806 0 25.5197 0C23.9405 0 20.1902 0.654624 20.1902 3.83782C20.1902 6.83278 24.5918 6.86999 24.5918 8.44314C24.5918 10.0163 20.6437 9.7344 19.3408 8.74238L18.8677 11.3454C18.8677 11.3454 20.2886 12 22.4597 12C24.6313 12 27.9075 10.9336 27.9075 8.03101C27.9075 5.01682 23.4664 4.73618 23.4664 3.42569C23.4667 2.11489 26.566 2.28328 27.9278 2.99496Z" fill="#1A66B0"/>
</svg>
