<svg width="25" height="24" viewBox="0 0 25 24" fill="none" xmlns="http://www.w3.org/2000/svg">
<path d="M12.3555 0C5.73147 0 0.355469 5.376 0.355469 12C0.355469 18.624 5.73147 24 12.3555 24C18.9795 24 24.3555 18.624 24.3555 12C24.3555 5.376 18.9795 0 12.3555 0ZM18.7555 13.128L16.3555 15.528L15.2275 14.4L16.8275 12.8H7.88347L9.48347 14.4L8.35547 15.528L5.95547 13.128L4.82747 12L5.95547 10.872L8.35547 8.472L9.48347 9.6L7.88347 11.2H16.8275L15.2275 9.6L16.3555 8.472L18.7555 10.872L19.8835 12L18.7555 13.128Z" fill="black"/>
<path d="M12.3555 0C5.73147 0 0.355469 5.376 0.355469 12C0.355469 18.624 5.73147 24 12.3555 24C18.9795 24 24.3555 18.624 24.3555 12C24.3555 5.376 18.9795 0 12.3555 0ZM18.7555 13.128L16.3555 15.528L15.2275 14.4L16.8275 12.8H7.88347L9.48347 14.4L8.35547 15.528L5.95547 13.128L4.82747 12L5.95547 10.872L8.35547 8.472L9.48347 9.6L7.88347 11.2H16.8275L15.2275 9.6L16.3555 8.472L18.7555 10.872L19.8835 12L18.7555 13.128Z" fill="url(#paint0_linear)"/>
<defs>
<linearGradient id="paint0_linear" x1="-3.70752" y1="-0.8" x2="13.3375" y2="16.0605" gradientUnits="userSpaceOnUse">
<stop stop-color="white"/>
<stop offset="0.0001" stop-color="#EFA764"/>
<stop offset="1" stop-color="#FFE2AB" stop-opacity="0.99"/>
</linearGradient>
</defs>
</svg>
