<svg width="17" height="26" viewBox="0 0 17 26" fill="none" xmlns="http://www.w3.org/2000/svg">
<path d="M0 2.12365V12.2826C0 13.4559 0.997541 14.4063 2.22914 14.4063H5.91559V23.4954C5.91559 23.6069 5.96017 23.7131 6.04376 23.7927L8.28684 25.9164C8.40387 26.0279 8.59335 26.0279 8.71038 25.9164L10.9395 23.7927C11.0231 23.7131 11.0705 23.6043 11.0705 23.4928V22.431C11.0705 22.2982 11.0148 22.1735 10.9172 22.0806L9.71906 20.9391C9.64383 20.8648 9.64383 20.748 9.71906 20.6736L10.8002 19.6437C11.0649 19.3915 11.0649 18.98 10.8002 18.7279L9.733 17.7112C9.65776 17.6368 9.65776 17.52 9.733 17.4457L10.9312 16.3043C11.0287 16.2113 11.0844 16.0866 11.0844 15.9539V14.4116H14.7709C16.0025 14.4116 17 13.4612 17 12.2879V2.12365C17 0.950335 16.0025 5.54769e-06 14.7709 5.54769e-06H2.23193C1.00033 -0.002649 0.00278643 0.94768 0 2.12099V2.12365ZM8.50139 2.75808C9.6912 2.75808 10.6581 3.67921 10.6581 4.81271C10.6581 5.9462 9.6912 6.86733 8.50139 6.86733C7.31159 6.86733 6.3447 5.9462 6.3447 4.81271C6.3447 3.67921 7.31159 2.75808 8.50139 2.75808ZM4.8038 9.65991C4.79544 8.73082 5.57564 7.97162 6.55089 7.96366C6.55647 7.96366 6.56204 7.96366 6.56761 7.96366H10.4352C11.4104 7.96366 12.199 8.7149 12.199 9.64399V11.4624H4.8038V9.65991Z" fill="black"/>
<path d="M0 2.12365V12.2826C0 13.4559 0.997541 14.4063 2.22914 14.4063H5.91559V23.4954C5.91559 23.6069 5.96017 23.7131 6.04376 23.7927L8.28684 25.9164C8.40387 26.0279 8.59335 26.0279 8.71038 25.9164L10.9395 23.7927C11.0231 23.7131 11.0705 23.6043 11.0705 23.4928V22.431C11.0705 22.2982 11.0148 22.1735 10.9172 22.0806L9.71906 20.9391C9.64383 20.8648 9.64383 20.748 9.71906 20.6736L10.8002 19.6437C11.0649 19.3915 11.0649 18.98 10.8002 18.7279L9.733 17.7112C9.65776 17.6368 9.65776 17.52 9.733 17.4457L10.9312 16.3043C11.0287 16.2113 11.0844 16.0866 11.0844 15.9539V14.4116H14.7709C16.0025 14.4116 17 13.4612 17 12.2879V2.12365C17 0.950335 16.0025 5.54769e-06 14.7709 5.54769e-06H2.23193C1.00033 -0.002649 0.00278643 0.94768 0 2.12099V2.12365ZM8.50139 2.75808C9.6912 2.75808 10.6581 3.67921 10.6581 4.81271C10.6581 5.9462 9.6912 6.86733 8.50139 6.86733C7.31159 6.86733 6.3447 5.9462 6.3447 4.81271C6.3447 3.67921 7.31159 2.75808 8.50139 2.75808ZM4.8038 9.65991C4.79544 8.73082 5.57564 7.97162 6.55089 7.96366C6.55647 7.96366 6.56204 7.96366 6.56761 7.96366H10.4352C11.4104 7.96366 12.199 8.7149 12.199 9.64399V11.4624H4.8038V9.65991Z" fill="url(#paint0_linear)"/>
<defs>
<linearGradient id="paint0_linear" x1="-2.87795" y1="-0.866667" x2="13.964" y2="10.0262" gradientUnits="userSpaceOnUse">
<stop stop-color="white"/>
<stop offset="0.0001" stop-color="#CBEF64"/>
<stop offset="1" stop-color="#ABFFE6" stop-opacity="0.99"/>
</linearGradient>
</defs>
</svg>
