<svg width="12" height="11" viewBox="0 0 12 11" fill="none" xmlns="http://www.w3.org/2000/svg">
<path fill-rule="evenodd" clip-rule="evenodd" d="M7.83908 5.50153L11.2472 2.09247C11.7236 1.61594 11.7236 0.846154 11.2472 0.36962C10.7708 -0.106915 10.0012 -0.106915 9.52481 0.36962L6.1167 3.77867L2.70859 0.357401C2.23219 -0.119134 1.46262 -0.119134 0.986216 0.357401C0.509814 0.833935 0.509814 1.60372 0.986216 2.08026L4.39432 5.50153L0.974001 8.91058C0.497599 9.38711 0.497599 10.1569 0.974001 10.6334C1.21831 10.8778 1.5237 11 1.8413 11C2.1589 11 2.46428 10.8778 2.70859 10.6457L6.1167 7.22438L9.52481 10.6334C9.76911 10.8778 10.0745 11 10.3921 11C10.7097 11 11.0151 10.8778 11.2594 10.6457C11.7358 10.1691 11.7358 9.39933 11.2594 8.9228L7.83908 5.50153Z" fill="white"/>
</svg>
