<svg width="17" height="17" viewBox="0 0 17 17" fill="none" xmlns="http://www.w3.org/2000/svg">
<path d="M11.0101 0.793457H6.92378C3.63109 0.793457 0.946289 3.49939 0.946289 6.81799V10.9194C0.946289 14.238 3.63109 16.944 6.92378 16.944H10.9932C14.2859 16.944 16.9707 14.238 16.9707 10.9194V6.81799C16.9876 3.49939 14.3028 0.793457 11.0101 0.793457ZM13.0532 7.36258L8.44348 12.0256C8.20708 12.2639 7.81871 12.2639 7.58232 12.0256L4.88063 9.30268C4.64423 9.06442 4.64423 8.673 4.88063 8.43474L5.64048 7.66891C5.87687 7.43065 6.26524 7.43065 6.50164 7.66891L7.81871 8.99635C7.92003 9.09846 8.10577 9.09846 8.20708 8.99635L11.4322 5.74583C11.6686 5.50757 12.057 5.50757 12.2934 5.74583L13.0532 6.51166C13.2896 6.74991 13.2896 7.12432 13.0532 7.36258Z" fill="black"/>
<path d="M11.0101 0.793457H6.92378C3.63109 0.793457 0.946289 3.49939 0.946289 6.81799V10.9194C0.946289 14.238 3.63109 16.944 6.92378 16.944H10.9932C14.2859 16.944 16.9707 14.238 16.9707 10.9194V6.81799C16.9876 3.49939 14.3028 0.793457 11.0101 0.793457ZM13.0532 7.36258L8.44348 12.0256C8.20708 12.2639 7.81871 12.2639 7.58232 12.0256L4.88063 9.30268C4.64423 9.06442 4.64423 8.673 4.88063 8.43474L5.64048 7.66891C5.87687 7.43065 6.26524 7.43065 6.50164 7.66891L7.81871 8.99635C7.92003 9.09846 8.10577 9.09846 8.20708 8.99635L11.4322 5.74583C11.6686 5.50757 12.057 5.50757 12.2934 5.74583L13.0532 6.51166C13.2896 6.74991 13.2896 7.12432 13.0532 7.36258Z" fill="url(#paint0_linear)"/>
<defs>
<linearGradient id="paint0_linear" x1="-1.76652" y1="0.255107" x2="9.70238" y2="11.5113" gradientUnits="userSpaceOnUse">
<stop stop-color="white"/>
<stop offset="0.0001" stop-color="#EFA764"/>
<stop offset="1" stop-color="#FFE2AB" stop-opacity="0.99"/>
</linearGradient>
</defs>
</svg>
