<svg width="16" height="17" viewBox="0 0 16 17" fill="none" xmlns="http://www.w3.org/2000/svg">
<path d="M10.0319 0.710449H6.18632C3.08765 0.710449 0.561035 3.41638 0.561035 6.73498V10.8364C0.561035 14.155 3.08765 16.861 6.18632 16.861H10.016C13.1146 16.861 15.6413 14.155 15.6413 10.8364V6.73498C15.6571 3.41638 13.1305 0.710449 10.0319 0.710449ZM11.9546 7.27957L7.61648 11.9426C7.39401 12.1809 7.02853 12.1809 6.80606 11.9426L4.26355 9.21967C4.04109 8.98141 4.04109 8.58999 4.26355 8.35173L4.97863 7.5859C5.2011 7.34764 5.56659 7.34764 5.78906 7.5859L7.02853 8.91334C7.12387 9.01545 7.29867 9.01545 7.39401 8.91334L10.4291 5.66282C10.6516 5.42456 11.0171 5.42456 11.2395 5.66282L11.9546 6.42865C12.1771 6.66691 12.1771 7.04131 11.9546 7.27957Z" fill="black"/>
<path d="M10.0319 0.710449H6.18632C3.08765 0.710449 0.561035 3.41638 0.561035 6.73498V10.8364C0.561035 14.155 3.08765 16.861 6.18632 16.861H10.016C13.1146 16.861 15.6413 14.155 15.6413 10.8364V6.73498C15.6571 3.41638 13.1305 0.710449 10.0319 0.710449ZM11.9546 7.27957L7.61648 11.9426C7.39401 12.1809 7.02853 12.1809 6.80606 11.9426L4.26355 9.21967C4.04109 8.98141 4.04109 8.58999 4.26355 8.35173L4.97863 7.5859C5.2011 7.34764 5.56659 7.34764 5.78906 7.5859L7.02853 8.91334C7.12387 9.01545 7.29867 9.01545 7.39401 8.91334L10.4291 5.66282C10.6516 5.42456 11.0171 5.42456 11.2395 5.66282L11.9546 6.42865C12.1771 6.66691 12.1771 7.04131 11.9546 7.27957Z" fill="url(#paint0_linear)"/>
<defs>
<linearGradient id="paint0_linear" x1="-1.99193" y1="0.172099" x2="9.44288" y2="10.7336" gradientUnits="userSpaceOnUse">
<stop stop-color="white"/>
<stop offset="0.0001" stop-color="#CBEF64"/>
<stop offset="1" stop-color="#ABFFE6" stop-opacity="0.99"/>
</linearGradient>
</defs>
</svg>
