<svg width="16" height="17" viewBox="0 0 16 17" fill="none" xmlns="http://www.w3.org/2000/svg">
<path d="M10.0319 0.422485H6.18632C3.08765 0.422485 0.561035 3.12842 0.561035 6.44702V10.5485C0.561035 13.8671 3.08765 16.573 6.18632 16.573H10.016C13.1146 16.573 15.6413 13.8671 15.6413 10.5485V6.44702C15.6571 3.12842 13.1305 0.422485 10.0319 0.422485ZM11.9546 6.99161L7.61648 11.6547C7.39401 11.8929 7.02853 11.8929 6.80606 11.6547L4.26355 8.93171C4.04109 8.69345 4.04109 8.30203 4.26355 8.06377L4.97863 7.29794C5.2011 7.05968 5.56659 7.05968 5.78906 7.29794L7.02853 8.62538C7.12387 8.72749 7.29867 8.72749 7.39401 8.62538L10.4291 5.37485C10.6516 5.1366 11.0171 5.1366 11.2395 5.37485L11.9546 6.14068C12.1771 6.37894 12.1771 6.75335 11.9546 6.99161Z" fill="black"/>
<path d="M10.0319 0.422485H6.18632C3.08765 0.422485 0.561035 3.12842 0.561035 6.44702V10.5485C0.561035 13.8671 3.08765 16.573 6.18632 16.573H10.016C13.1146 16.573 15.6413 13.8671 15.6413 10.5485V6.44702C15.6571 3.12842 13.1305 0.422485 10.0319 0.422485ZM11.9546 6.99161L7.61648 11.6547C7.39401 11.8929 7.02853 11.8929 6.80606 11.6547L4.26355 8.93171C4.04109 8.69345 4.04109 8.30203 4.26355 8.06377L4.97863 7.29794C5.2011 7.05968 5.56659 7.05968 5.78906 7.29794L7.02853 8.62538C7.12387 8.72749 7.29867 8.72749 7.39401 8.62538L10.4291 5.37485C10.6516 5.1366 11.0171 5.1366 11.2395 5.37485L11.9546 6.14068C12.1771 6.37894 12.1771 6.75335 11.9546 6.99161Z" fill="#344053"/>
</svg>
