<svg width="9" height="12" viewBox="0 0 9 12" fill="none" xmlns="http://www.w3.org/2000/svg">
<path d="M8.27273 4.31839H7.62338V2.5426C7.62338 1.13004 6.53247 0 5.18182 0H3.83117C2.46753 0 1.37662 1.13004 1.37662 2.5426V4.31839H0.727273C0.324675 4.31839 0 4.65471 0 5.07175V11.2466C0 11.6637 0.324675 12 0.727273 12H8.27273C8.67532 12 9 11.6637 9 11.2466V5.07175C9 4.65471 8.67532 4.31839 8.27273 4.31839ZM6.18182 4.31839H2.80519V2.5426C2.80519 1.96413 3.25974 1.49327 3.81818 1.49327H5.16883C5.72727 1.49327 6.18182 1.95067 6.18182 2.52915V4.31839Z" fill="#BFFFA8"/>
</svg>
