<svg width="11" height="11" viewBox="0 0 11 11" fill="none" xmlns="http://www.w3.org/2000/svg">
<path fill-rule="evenodd" clip-rule="evenodd" d="M0 6.23567V4.75032C0 4.37197 0.30828 4.06369 0.700637 4.06369H4.06369V0.700637C4.06369 0.30828 4.37197 0 4.75032 0H6.23567C6.62803 0 6.93631 0.30828 6.93631 0.700637V4.06369H10.2994C10.6777 4.06369 11 4.37197 11 4.75032V6.23567C11 6.62803 10.6777 6.93631 10.2994 6.93631H6.93631V10.2994C6.93631 10.6777 6.62803 11 6.23567 11H4.75032C4.37197 11 4.06369 10.6777 4.06369 10.2994V6.93631H0.700637C0.30828 6.93631 0 6.62803 0 6.23567Z" fill="white"/>
</svg>
