<svg width="23" height="36" viewBox="0 0 23 36" fill="none" xmlns="http://www.w3.org/2000/svg">
<path d="M0 2.94043V17.0067C0 18.6313 1.34961 19.9471 3.0159 19.9471H8.00344V32.5321C8.00344 32.6865 8.06376 32.8335 8.17686 32.9438L11.2116 35.8842C11.3699 36.0386 11.6263 36.0386 11.7846 35.8842L14.8005 32.9438C14.9136 32.8335 14.9777 32.6828 14.9777 32.5285V31.0583C14.9777 30.8745 14.9023 30.7017 14.7704 30.5731L13.1493 28.9926C13.0475 28.8897 13.0475 28.728 13.1493 28.625L14.612 27.1989C14.9702 26.8498 14.9702 26.2801 14.612 25.9309L13.1682 24.5232C13.0664 24.4202 13.0664 24.2585 13.1682 24.1556L14.7892 22.5751C14.9212 22.4465 14.9966 22.2737 14.9966 22.09V19.9545H19.9841C21.6504 19.9545 23 18.6386 23 17.014V2.94043C23 1.31585 21.6504 7.68142e-06 19.9841 7.68142e-06H3.01967C1.35338 -0.00366785 0.00376987 1.31217 0 2.93676V2.94043ZM11.5019 3.81889C13.1116 3.81889 14.4198 5.09429 14.4198 6.66375C14.4198 8.2332 13.1116 9.50861 11.5019 9.50861C9.89215 9.50861 8.584 8.2332 8.584 6.66375C8.584 5.09429 9.89215 3.81889 11.5019 3.81889ZM6.49926 13.3753C6.48795 12.0888 7.54352 11.0376 8.86297 11.0266C8.87051 11.0266 8.87805 11.0266 8.88559 11.0266H14.1182C15.4376 11.0266 16.5045 12.0668 16.5045 13.3532V15.871H6.49926V13.3753Z" fill="white"/>
</svg>
