<svg xmlns="http://www.w3.org/2000/svg" xmlns:xlink="http://www.w3.org/1999/xlink">
  <symbol viewBox="0 0 111.7 65.6" id="arrow-down" xmlns="http://www.w3.org/2000/svg">
    <polygon points="56,65.6 0,12.3 11.7,0 56,42.1 99.9,0 111.7,12.3 "/>
  </symbol>

  <symbol viewBox="0 0 111.7 65.6" id="arrow-top" xmlns="http://www.w3.org/2000/svg">
    <polygon points="55.7,0 111.7,53.3 100,65.6 55.7,23.5 11.8,65.6 0,53.3 "/>
  </symbol>

  <symbol viewBox="0 0 65.6 111.7" id="arrow-right" xmlns="http://www.w3.org/2000/svg">
    <polygon points="65.6,55.7 12.3,111.7 0,100 42.1,55.7 0,11.8 12.3,0 "/>
  </symbol>
  <symbol viewBox="0 0 65.6 111.7" id="arrow-left" xmlns="http://www.w3.org/2000/svg">
    <polygon points="0,56 53.3,0 65.6,11.7 23.5,56 65.6,99.9 53.3,111.7 "/>
  </symbol>
  <symbol viewBox="0 0 78 92" id="notifications" xmlns="http://www.w3.org/2000/svg">
    <path d="M10,79h16c0,7.2,5.8,13,13,13s13-5.8,13-13h16c5.5,0,10-4.5,10-10c0-4.5-2.9-8.3-7-9.5V42.2c0-8-3-15.6-8.5-21.4
	c-3.6-3.9-8.2-6.7-13.2-8.3c0.1-0.7,0.2-1.3,0.2-2C49.5,4.7,44.8,0,39,0S28.5,4.7,28.5,10.5c0,0.7,0.1,1.3,0.2,2
	c-5,1.6-9.6,4.4-13.2,8.3C10,26.6,7,34.2,7,42.2v17.3c-4.1,1.3-7,5.1-7,9.5C0,74.5,4.5,79,10,79z M39,86c-3.9,0-7-3.1-7-7h14
	C46,82.9,42.9,86,39,86z M39,6c2.5,0,4.5,2,4.5,4.5c0,0.2,0,0.5-0.1,0.7c-0.7-0.1-1.3-0.1-2-0.2c-0.1,0-0.3,0-0.4,0h-1.2h-1.7H37
	c-0.1,0-0.3,0-0.4,0c-0.7,0-1.4,0.1-2,0.2c0-0.2-0.1-0.5-0.1-0.7C34.5,8,36.5,6,39,6z M13,42.2c0-6.4,2.4-12.6,6.8-17.3
	c4.7-5,11.4-7.9,18.3-7.9h1.7c6.9,0,13.6,2.9,18.3,7.9c4.4,4.7,6.8,10.8,6.8,17.3V59H13V42.2z M10,65h58c2.2,0,4,1.8,4,4s-1.8,4-4,4
	H10c-2.2,0-4-1.8-4-4S7.8,65,10,65z"/>
  </symbol>
  <symbol viewBox="0 0 95.1 69.6" id="message" xmlns="http://www.w3.org/2000/svg">
    <g>
  		<path d="M65.7,0H29.3C13.2,0,0,13.1,0,29.3C0,39,4.8,48,12.7,53.5c-1.3,2.5-2.6,4.7-3.9,6.5c-1.5,2.1-1.6,4.8-0.1,7
  			c1.2,1.7,3,2.6,5,2.6c0.5,0,1.1-0.1,1.6-0.2c9.6-2.6,18.3-7.2,24.2-10.8h26.3c16.1,0,29.3-13.1,29.3-29.3S81.9,0,65.7,0z
  			 M65.7,53.2h-27c-0.5,0-1,0.1-1.4,0.4c-4.5,2.8-13.6,7.9-23.4,10.6c-0.3,0.1-0.5,0-0.7-0.3c-0.2-0.3-0.2-0.5,0-0.8
  			c1.9-2.6,3.8-5.8,5.5-9.5c0.6-1.3,0.1-2.8-1.1-3.5C10.1,45.9,5.4,37.9,5.4,29.3c0-13.2,10.7-23.9,23.9-23.9h36.5
  			c13.2,0,23.9,10.7,23.9,23.9S78.9,53.2,65.7,53.2z"/>
  		<circle cx="27.5" cy="29.3" r="5.8"/>
  		<circle cx="47.5" cy="29.3" r="5.8"/>
  		<circle cx="67.5" cy="29.3" r="5.8"/>
  	</g>
  </symbol>
  <symbol viewBox="0 0 22 15" id="chart" xmlns="http://www.w3.org/2000/svg">
    <path d="M20,4c1.1,0,2-0.9,2-2s-0.9-2-2-2s-2,0.9-2,2c0,0.6,0.2,1.1,0.6,1.5l-4.2,7.6C14.3,11,14.2,11,14,11c-0.3,0-0.6,0.1-0.9,0.2
	L9.6,7.1C9.9,6.8,10,6.4,10,6c0-1.1-0.9-2-2-2S6,4.9,6,6c0,0.4,0.1,0.8,0.4,1.1l-3.5,4.1C2.6,11.1,2.3,11,2,11c-1.1,0-2,0.9-2,2
	s0.9,2,2,2s2-0.9,2-2c0-0.4-0.1-0.8-0.4-1.1l3.5-4.1C7.4,7.9,7.7,8,8,8s0.6-0.1,0.9-0.2l3.5,4.1C12.1,12.2,12,12.6,12,13
	c0,1.1,0.9,2,2,2s2-0.9,2-2c0-0.6-0.2-1.1-0.6-1.5l4.2-7.6C19.7,4,19.8,4,20,4z"/>
  </symbol>
  <symbol viewBox="0 0 415.6 437.2" id="support" xmlns="http://www.w3.org/2000/svg">
    <g>
			<path d="M88,217.6c-10.4,0-18.8,8.4-18.8,18.8v112c0,10,8.4,18.8,18.8,18.8s18.8-8.4,18.8-18.8v-112
				C106.8,226,98.4,217.6,88,217.6z"/>
			<path d="M412.4,178.8c-1.2-12-4.4-24-8.4-35.2c-4-11.6-9.2-22.4-15.6-32.8c-6-10.4-13.2-20.4-20.8-29.6c-0.8-0.8-1.6-1.6-2.8-2.4
				c1.2-5.6-0.4-11.2-4.4-15.6c-42-42-97.2-63.2-152-63.2s-110,20.8-152,62.8c-4.4,4.4-5.6,10-4.4,15.6c-0.8,0.4-2,1.2-2.8,2.4
				c-8,9.2-14.8,19.2-20.8,29.6S17.2,132,12.8,143.2c-4,11.6-7.2,23.2-9.6,35.2c-2,12-3.2,24-3.2,36v77.2c0,2.8,1.2,5.2,2.8,7.2
				c0.4,0.4,0.8,0.8,1.2,1.2c2,14.8,8.8,27.6,18.4,37.6c7.6,7.6,17.6,13.6,28.4,16.8c-0.4-2-0.8-4.4-0.8-6.8v-112
				c0-2.4,0.4-4.4,0.8-6.8c-10.8,3.2-20.4,8.8-28.4,16.8c-0.8,0.8-1.6,1.6-2.4,2.4v-33.2c0-10.8,0.8-22,2.8-32.8
				c2-10.8,4.8-21.6,8.4-31.6c3.6-10.4,8.4-20.4,14-29.6c5.6-9.6,11.6-18.4,18.8-26.8c0.4-0.8,1.2-1.6,1.6-2.4
				c5.6,0.8,10.8-0.8,14.8-4.8c35.2-35.2,81.6-53.2,128-53.2s92.8,18,128,53.2c4,4,9.2,5.6,14,4.8c0.4,0.8,0.8,1.6,1.6,2.4
				c7.2,8.4,13.2,17.2,18.8,26.8c5.6,9.6,10,19.6,14,29.6c3.6,10.4,6.4,20.8,8.4,31.6s2.8,21.6,2.8,32.8v33.6
				c-0.8-0.8-1.6-1.6-2.4-2.4c-7.6-7.6-17.6-13.6-28.4-16.8c0.4,2,0.8,4.4,0.8,6.8v112c0,2.4-0.4,4.4-0.8,6.8c2.8-0.8,6-2,8.8-3.2
				V388c0,4.4-0.4,8-1.2,11.2c-0.8,2.8-1.6,4.8-3.2,6.4c-1.2,1.2-2.8,2.4-4.8,3.2c-2,0.8-4.8,1.2-7.6,0.8h-0.4h-108
				c-3.2-6-9.6-10-16.4-10h-47.6c-10.4,0-18.8,8.4-18.8,18.8s8.4,18.8,18.8,18.8H232c7.2,0,13.2-4,16.4-10h108h4c4,0,7.6-0.8,10.8-2
				c4.4-1.6,8.4-4.4,11.6-8s5.2-7.6,6.8-12.4s2-10.4,2-16.8v-46.8v-1.6c0.4-0.4,1.2-1.2,1.6-1.6c10-10,16.8-23.2,18.4-37.6
				c0.4-0.4,0.8-0.8,1.2-1.2c2-2,2.8-4.4,2.8-7.2v-77.2C415.6,202.8,414.4,190.4,412.4,178.8z"/>
			<path d="M347.6,348V236c0-10.4-8.4-18.8-18.8-18.8S310,225.6,310,236v112c0,10.4,8.4,18.8,18.8,18.8
				C339.2,367.2,347.6,358.4,347.6,348z"/>
		</g>
  </symbol>
  <symbol viewBox="0 0 93.1 94.2" id="strategy" xmlns="http://www.w3.org/2000/svg">
    <path d="M77.9,94.2c8.4,0,15.2-6.8,15.2-15.1c0-8.4-6.8-15.2-15.1-15.2c-4.8,0-9.3,2.3-12.2,6.1c-3.6-1.7-6.9-4.1-9.8-6.9
	c-12.7-12.7-13.6-33-3.3-47.2l0.9,4.4c0.5,2.4,2.9,4,5.3,3.5c2.4-0.5,4-2.9,3.5-5.3l-3.1-15c-0.5-2.4-2.9-3.9-5.3-3.4L39,3.2
	c-2.4,0.5-4,2.9-3.5,5.3l0,0l0,0c0.5,2.4,2.9,4,5.3,3.5l0,0l4.4-0.9C32.7,28.7,34,53.8,49.7,69.5c3.8,3.8,8.2,6.9,13.1,9.1
	c0,0.2,0,0.4,0,0.6C62.6,87.4,69.5,94.2,77.9,94.2z M77.9,72.9c3.4,0,6.2,2.8,6.2,6.2c0,3.4-2.8,6.2-6.2,6.2c-3.4,0-6.2-2.8-6.2-6.2
	C71.6,75.7,74.4,72.9,77.9,72.9C77.8,72.9,77.8,72.9,77.9,72.9z M66.8,47.1l4.7-4.7l-4.7-4.7c-1.8-1.7-1.8-4.6,0-6.3l0,0l0,0
	c1.7-1.8,4.6-1.8,6.3,0l0,0l4.7,4.7l4.7-4.7c1.7-1.8,4.6-1.8,6.3,0l0,0l0,0c1.8,1.7,1.8,4.6,0,6.3l0,0l-4.7,4.7l4.7,4.6
	c1.8,1.7,1.8,4.6,0,6.3s-4.6,1.8-6.3,0l0,0l-4.7-4.7l-4.7,4.7c-1.8,1.8-4.6,1.7-6.4,0S65.1,48.8,66.8,47.1z M37.5,76.1l-4.7,4.7
	l4.7,4.7c1.8,1.8,1.8,4.6,0,6.3c-1.8,1.8-4.6,1.8-6.3,0l0,0l-4.7-4.7l-4.7,4.7c-1.8,1.6-4.7,1.5-6.3-0.4c-1.5-1.7-1.5-4.3,0-6
	l4.7-4.7L15.5,76c-1.8-1.8-1.8-4.6,0-6.3s4.6-1.8,6.3,0l4.7,4.7l4.7-4.7c1.6-1.9,4.4-2.2,6.3-0.6c1.9,1.6,2.2,4.4,0.6,6.3
	C38,75.7,37.8,75.9,37.5,76.1z M1.3,42.3L6,37.6l-4.7-4.7c-1.8-1.8-1.8-4.6,0-6.3c1.8-1.8,4.6-1.8,6.3,0l4.7,4.7l4.7-4.7
	c1.8-1.8,4.6-1.8,6.3,0s1.8,4.6,0,6.3l0,0l-4.7,4.7l4.7,4.7c1.8,1.8,1.8,4.6,0,6.3s-4.6,1.8-6.3,0l0,0l-4.7-4.7l-4.7,4.7
	c-1.8,1.8-4.6,1.8-6.3,0S-0.4,44,1.3,42.3z"/>
  </symbol>
  <symbol viewBox="0 0 62 62" id="statistics" xmlns="http://www.w3.org/2000/svg">
    <path d="M31,62C13.9,62,0,48.1,0,31S13.9,0,31,0s31,13.9,31,31S48.1,62,31,62z M23.4,54.8c2.5,0.8,5.1,1.2,7.6,1.2
	c7.9,0,15.3-3.7,19.9-10L32.4,35.2L23.4,54.8z M28,6.2C15.6,7.7,6,18.4,6,31c0,8.7,4.6,16.8,11.9,21.3L28,30.4V6.2z M54,40.9
	c0.9-2.1,1.5-4.4,1.8-6.9H42.1L54,40.9z M55.8,28C54.4,16.7,45.3,7.6,34,6.2V28H55.8z"/>
<path d="M31,1C14.5,1,1,14.5,1,31s13.5,30,30,30s30-13.5,30-30S47.5,1,31,1z M56.9,29H33V5.1C45.7,6.1,55.9,16.3,56.9,29z M56.9,33
	c-0.3,3.3-1.1,6.5-2.5,9.3l-16-9.3H56.9z M5,31C5,17.3,15.6,6.1,29,5.1v25.5L18.4,53.7C10.4,49.3,5,40.8,5,31z M31,57
	c-3.2,0-6.2-0.6-9-1.6l9.9-21.6l20.5,11.9C47.7,52.6,39.8,57,31,57z"/>
  </symbol>
  <symbol viewBox="0 0 80.1 90" id="settings" xmlns="http://www.w3.org/2000/svg">
    <path d="M75.2,25H39.4C37.2,33.6,29.3,40,20,40C8.9,40,0,31,0,20S9,0,20,0c9.3,0,17.2,6.4,19.4,15h35.7c2.8,0,5,2.2,5,5
    	S78,25,75.2,25z M20.1,9.9c-5.5,0-10,4.5-10,10s4.5,10,10,10s10-4.5,10-10S25.6,9.9,20.1,9.9z M5,65h35.7c2.2-8.6,10.1-15,19.4-15
    	c11.1,0,20,9,20,20s-9,20-20,20c-9.3,0-17.2-6.4-19.4-15H5c-2.8,0-5-2.2-5-5S2.2,65,5,65z M60.1,80.1c5.5,0,10-4.5,10-10
    	s-4.5-10-10-10s-10,4.5-10,10S54.6,80.1,60.1,80.1z"/>
    </symbol>
    <symbol viewBox="0 0 32 32" id="btc" xmlns="http://www.w3.org/2000/svg">
      <path style="fill-rule:evenodd;clip-rule:evenodd;fill:#F7931A;" d="M16,0c8.8,0,16,7.2,16,16s-7.2,16-16,16C7.2,32,0,24.8,0,16S7.2,0,16,0"/>
      <path style="fill:#FFFFFF;" d="M23.2,14c0.3-2.1-1.3-3.2-3.5-4l0.7-2.8l-1.7-0.4L18,9.5c-0.5-0.1-0.9-0.2-1.4-0.3l0.7-2.8L15.6,6l-0.7,2.8
      	c-0.4-0.1-0.7-0.2-1.1-0.3l0,0L11.4,8l-0.5,1.8c0,0,1.3,0.3,1.3,0.3c0.7,0.2,0.8,0.6,0.8,1l-0.8,3.2c0,0,0.1,0,0.2,0.1l-0.2,0
      	l-1.1,4.5c-0.1,0.2-0.3,0.5-0.8,0.4c0,0-1.3-0.3-1.3-0.3l-0.9,2l2.3,0.6c0.4,0.1,0.8,0.2,1.2,0.3l-0.7,2.9l1.7,0.4l0.7-2.8
      	c0.5,0.1,0.9,0.2,1.4,0.4L14,25.5l1.7,0.4l0.7-2.9c2.9,0.6,5.2,0.3,6.1-2.3c0.8-2.1,0-3.4-1.6-4.2C22.1,16.3,23,15.6,23.2,14
      	 M19.2,19.6c-0.5,2.1-4.1,1-5.3,0.7l0.9-3.8C16,16.7,19.8,17.3,19.2,19.6 M19.8,14c-0.5,2-3.5,1-4.5,0.7l0.9-3.5
      	C17.1,11.5,20.3,12,19.8,14"/>
    </symbol>
    <symbol viewBox="0 0 32 32" id="bch" xmlns="http://www.w3.org/2000/svg">
      <path style="fill-rule:evenodd;clip-rule:evenodd;fill:#8DC351;" d="M16,0c8.8,0,16,7.2,16,16s-7.2,16-16,16C7.2,32,0,24.8,0,16S7.2,0,16,0"/>
      <path style="fill:#FFFFFF;" d="M21.2,10.5c-0.8-2-2.7-2.2-5-1.7L15.4,6l-1.7,0.5l0.8,2.7c-0.4,0.1-0.9,0.3-1.4,0.4l-0.8-2.8l-1.7,0.5l0.8,2.8
        c-0.4,0.1-0.7,0.2-1.1,0.3l0,0L8,11.2L8.5,13c0,0,1.3-0.4,1.2-0.4c0.7-0.2,1,0.1,1.2,0.5l0.9,3.2c0,0,0.1,0,0.2,0l-0.2,0.1l1.3,4.5
        c0,0.2,0,0.6-0.5,0.8c0,0-1.2,0.4-1.2,0.4l0.2,2.1l2.2-0.6c0.4-0.1,0.8-0.2,1.2-0.3l0.8,2.8l1.7-0.5l-0.8-2.8
        c0.5-0.1,0.9-0.2,1.4-0.4l0.8,2.8l1.7-0.5l-0.8-2.8c2.8-1,4.6-2.3,4.1-5.1c-0.4-2.2-1.7-2.9-3.5-2.8C21.4,13,21.8,12,21.2,10.5
        L21.2,10.5z M20.6,17.3c0.6,2.1-3.1,2.9-4.3,3.3l-1.1-3.8C16.4,16.5,19.9,15.1,20.6,17.3L20.6,17.3z M18.2,12.2
        c0.6,1.9-2.5,2.6-3.5,2.9l-1-3.4C14.7,11.4,17.7,10.2,18.2,12.2L18.2,12.2z"/>
    </symbol>
    <symbol viewBox="0 0 32 32" id="binance" xmlns="http://www.w3.org/2000/svg">
      <g>
      	<circle style="fill:#F3BA2F;" cx="16" cy="16" r="16"/>
      	<path style="fill:#FFFFFF;" d="M12.1,14.4l3.9-3.9l3.9,3.9l2.3-2.3L16,6l-6.1,6.1L12.1,14.4z M6,16l2.3-2.3l2.3,2.3l-2.3,2.3L6,16z
      		 M12.1,17.6l3.9,3.9l3.9-3.9l2.3,2.3L16,26l-6.1-6.1l0,0C9.9,19.9,12.1,17.6,12.1,17.6z M21.5,16l2.3-2.3L26,16l-2.3,2.3L21.5,16z
      		 M18.3,16L18.3,16L18.3,16L16,18.3L13.7,16l0,0l0,0l0.4-0.4l0.2-0.2l1.7-1.7L18.3,16L18.3,16z"/>
      </g>
    </symbol>
    <symbol viewBox="0 0 32 32" id="litecoin" xmlns="http://www.w3.org/2000/svg">
      <path class="" style="fill-rule:evenodd;clip-rule:evenodd;fill:#BFBBBB;" d="M16,0c8.8,0,16,7.2,16,16s-7.2,16-16,16C7.2,32,0,24.8,0,16S7.2,0,16,0"/>
      <polygon style="fill-rule:evenodd;clip-rule:evenodd;fill:#FFFFFF;" points="10.4,19.2 9,19.8 9.7,17 11.1,16.4 13.2,8 18.3,8 16.8,14.2 18.2,13.6 17.6,16.4 16.1,16.9 15.3,20.4
	23,20.4 22.1,24 9.3,24 "/>
    </symbol>
    <symbol viewBox="0 0 280.6 512" id="ethereum" xmlns="http://www.w3.org/2000/svg">
      <path d="M140.3,333.6L0,266.8L140.3,512l140.3-245.2L140.3,333.6z"/>
      <path d="M265.3,217.1L140.3,0L15.1,217.4L140.3,158L265.3,217.1z"/>
      <path d="M26,245.5l114.3,54.1l114.5-54.2l-114.5-54.1L26,245.5z"/>
    </symbol>
    <symbol viewBox="0 0 168 116" id="next-arrow" xmlns="http://www.w3.org/2000/svg">
      <path d="M98,2c-1.8,1.8-2,3.3-2,18v16H86H76v22v22h10h10v16c0,14.7,0.2,16.2,2,18c2.6,2.6,5.9,2.5,9.6-0.3
	c7.9-5.9,59.4-52.2,59.9-53.8c0.4-1.1,0.3-2.8,0-3.9c-0.4-1.1-14.5-14.2-31.3-29C103.6-1.7,102.4-2.4,98,2z"/>
      <path d="M16.5,36.5c-0.5,0.2-2.2,0.6-3.7,0.9c-4.1,0.9-9.5,6.1-11.4,11.1c-2.5,6.6-1.5,17.2,2,22.5c4.2,6.4,8.6,8,21.6,8h11V57.5V36
      	l-9.2,0.1C21.7,36.1,17.1,36.3,16.5,36.5z"/>
      <path d="M41,58v22h15h15V58V36H56H41V58z"/>
    </symbol>

    <symbol viewBox="0 0 168 116" id="prev-arrow" xmlns="http://www.w3.org/2000/svg">
      <path d="M69.8,113.9c1.8-1.8,2-3.3,2-18v-16h10h10v-22v-22h-10h-10v-16c0-14.7-0.2-16.2-2-18c-2.6-2.6-5.9-2.5-9.6,0.3
      	C52.3,8.1,0.8,54.4,0.3,56c-0.4,1.1-0.3,2.8,0,3.9c0.4,1.1,14.5,14.2,31.3,29C64.2,117.6,65.4,118.3,69.8,113.9z"/>
      <path d="M151.3,79.4c0.5-0.2,2.2-0.6,3.7-0.9c4.1-0.9,9.5-6.1,11.4-11.1c2.5-6.6,1.5-17.2-2-22.5c-4.2-6.4-8.6-8-21.6-8h-11v21.5
      	v21.5l9.2-0.1C146.1,79.8,150.7,79.6,151.3,79.4z"/>
      <path d="M126.8,57.9v-22h-15h-15v22v22h15h15V57.9z"/>
    </symbol>
    <symbol viewBox="0 0 13.4 13.4" id="remove" xmlns="http://www.w3.org/2000/svg">
      <rect x="5.7" y="-1.8" transform="matrix(0.7071 -0.7071 0.7071 0.7071 -2.77 6.6873)" width="2" height="16.9"/>
      <rect x="-1.8" y="5.7" transform="matrix(0.7071 -0.7071 0.7071 0.7071 -2.77 6.6873)" width="16.9" height="2"/>
    </symbol>
    <symbol viewBox="0 0 58.4 56" id="verified" xmlns="http://www.w3.org/2000/svg">
      <path d="M53.4,37.8c0,0.6,0.1,1.3,0.3,1.9c1.1,3.1-0.6,6.5-3.8,7.6c-0.6,0.2-1.3,0.3-2,0.3c-2.6,0-5,1.7-5.8,4.2
	c-1,3.2-4.4,4.9-7.5,3.9c-0.6-0.2-1.2-0.5-1.8-0.9c-2.1-1.6-5-1.6-7.2,0c-2.7,2-6.4,1.4-8.4-1.2c-0.4-0.5-0.7-1.1-0.9-1.8
	c-0.8-2.5-3.1-4.2-5.8-4.2c-3.3,0-6-2.6-6.1-5.9c0-0.7,0.1-1.3,0.3-2c0.8-2.5-0.1-5.3-2.2-6.8c-2.7-1.9-3.3-5.7-1.4-8.4
	c0.4-0.5,0.9-1,1.4-1.4c2.2-1.5,3.1-4.3,2.2-6.8c-1.1-3.1,0.6-6.5,3.8-7.6c0.6-0.2,1.3-0.3,2-0.3c2.6,0,5-1.7,5.8-4.2
	c1-3.2,4.4-4.9,7.5-3.9c0.6,0.2,1.2,0.5,1.8,0.9c2.1,1.6,5,1.6,7.2,0c2.7-2,6.4-1.4,8.4,1.2c0.4,0.5,0.7,1.1,0.9,1.8
	c0.8,2.5,3.1,4.2,5.8,4.2c3.3,0,6,2.6,6.1,5.9c0,0.7-0.1,1.3-0.3,2c-0.8,2.5,0.1,5.3,2.2,6.8c2.7,1.9,3.3,5.7,1.4,8.4
	c-0.4,0.5-0.9,1-1.4,1.4C54.3,34,53.4,35.9,53.4,37.8L53.4,37.8z M37.6,21.6c-1.3-1.3-3.4-1.3-4.7,0l-5.8,5.8L25.7,26
	c-1.4-1.2-3.5-1-4.7,0.4c-1,1.2-1.1,3,0,4.3l1.4,1.4l2.4,2.4c1.3,1.3,3.4,1.3,4.7,0l2.4-2.4l5.8-5.8C38.9,25,38.9,22.9,37.6,21.6z"
	/>
    </symbol>
    <symbol viewBox="0 0 32 32.1" id="send" xmlns="http://www.w3.org/2000/svg">
      <path d="M31.9,2.2l-12,29c-0.2,0.6-0.8,0.9-1.4,0.9c0,0,0,0-0.1,0c-0.6,0-1.2-0.5-1.4-1l-3.8-12.2L1.1,15c-0.6-0.2-1-0.7-1.1-1.4
	c0-0.6,0.3-1.2,0.9-1.5l29-12c0.6-0.2,1.2-0.1,1.6,0.3C32,1,32.1,1.6,31.9,2.2z"/>
    </symbol>
    <symbol viewBox="0 0 266.2 350" id="man-user" xmlns="http://www.w3.org/2000/svg">
      <path d="M133.1,171.2c38.9,0,70.5-38.3,70.5-85.6c0-47.3-10.4-85.6-70.5-85.6S62.6,38.3,62.6,85.6
      	C62.6,132.9,94.2,171.2,133.1,171.2z"/>
      <path d="M266,298.4c-1.3-82.3-12.1-105.8-94.4-120.7c0,0-11.6,14.8-38.6,14.8s-38.6-14.8-38.6-14.8c-81.4,14.7-92.8,37.8-94.3,118
      	c-0.1,6.5-0.2,6.9-0.2,6.1c0,1.4,0,4.1,0,8.7c0,0,19.6,39.5,133.1,39.5c113.5,0,133.1-39.5,133.1-39.5c0-3,0-5,0-6.4
      	C266.2,304.6,266.1,303.7,266,298.4z"/>
    </symbol>
    <symbol viewBox="0 0 26 20" id="checked" xmlns="http://www.w3.org/2000/svg">
      <path d="M0.3,11C0.1,10.8,0,10.5,0,10.3s0.1-0.5,0.3-0.7l1.4-1.4c0.4-0.4,1-0.4,1.4,0l0.1,0.1l5.5,5.9c0.2,0.2,0.5,0.2,0.7,0
	L22.8,0.3h0.1l0,0c0.4-0.4,1-0.4,1.4,0l1.4,1.4c0.4,0.4,0.4,1,0,1.4l0,0l-16,16.6C9.5,19.9,9.3,20,9,20s-0.5-0.1-0.7-0.3l-7.8-8.4
	C0.5,11.3,0.3,11,0.3,11z"/>
    </symbol>
    <symbol fill="none" viewBox="0 0 57.148 15" id="firework-rocket" xmlns="http://www.w3.org/2000/svg">
      <g transform="translate(-7.852)"><g fill="#0081cc"><path d="M45.212 12.551c.006.332-.376.566-.92.563l-7.33-.04c-.065-3.428 4.566-4.681 8.144-6.42zM32.826 13.054l-8.26-.045C24.46 7.417 36.854 7.613 36.745 2.02l6.792.04c.755.004 1.49.452 1.377.89C43.74 7.545 32.73 7.84 32.826 13.054z"/><path d="M20.443 12.984l-8.262-.044C12.08 7.41 24.453 7.482 24.369 1.962l8.24.04c.115 5.46-12.272 5.456-12.167 10.983zM20.231 1.93c.106 5.523-12.283 5.46-12.178 10.987l-.036-1.615-.095-4.874c2.26-1.104 4.083-2.412 4.043-4.546z"/></g><path d="M7.929 6.435l-.044-2.323-.033-1.681c-.006-.333.375-.566.92-.563l3.197.017c.043 2.137-1.787 3.44-4.04 4.55z" fill="#ff6a00"/><path d="M64.519 7.069c.644.25.64.843-.008 1.089l-17.768 6.75c-.667.254-1.517-.047-1.525-.54L45 .646c-.008-.501.858-.812 1.533-.55z" fill="#595959"/><g fill="#ff6a00"><path d="M36.963 13.074l-4.136-.02C32.72 7.526 45.106 7.53 45.004 2.07l.09 4.582c-3.566 1.743-8.196 2.996-8.131 6.423zM24.573 13.008l-4.13-.024C20.34 7.458 32.726 7.461 32.622 2l4.13.022c.108 5.591-12.286 5.396-12.178 10.988zM12.182 12.939l-2.65-.014c-.755-.004-1.49-.453-1.38-.891C9.305 7.38 20.332 7.142 20.231 1.929l4.138.031c.083 5.521-12.29 5.45-12.188 10.978z"/></g></g></symbol>
  <symbol fill="none" viewBox="0 0 7 7" id="firework-star" xmlns="http://www.w3.org/2000/svg"><path d="M5.379 4.932l-1.566-.264L2.74 5.822l-.27-1.58-1.436-.698 1.402-.72.189-1.58 1.133 1.134 1.556-.277-.704 1.42.769 1.411z" fill="#FFBC00"/></symbol>
  <symbol viewBox="0 0 74.1 52.8" id="fullscreen" xmlns="http://www.w3.org/2000/svg">
    <path d="M58.9,0H15.1C6.8,0,0,6.8,0,15v22.8c0,8.3,6.8,15,15.1,15H59c8.3,0,15.1-6.8,15.1-15V15C74,6.8,67.2,0,58.9,0z M9,10
	c0-1.7,1.3-3,3-3h12c1.7,0,3,1.3,3,3s-1.3,3-3,3h-9v9c0,1.7-1.3,3-3,3s-3-1.3-3-3V10z M64,43c0,1.7-1.3,3-3,3H49c-1.7,0-3-1.3-3-3
	s1.3-3,3-3h9v-9c0-1.7,1.3-3,3-3s3,1.3,3,3V43z"/>
  </symbol>
  <symbol viewBox="0 0 23.3 23.3" id="statistics-2" xmlns="http://www.w3.org/2000/svg">
    <path d="M11.1,0C5.1,0.3,0.3,5.1,0,11.1h3.7C4,7.1,7.1,4,11.1,3.7V0z M12.2,0v3.7c1.7,0.1,3.4,0.8,4.7,1.9L19.5,3
	C17.5,1.3,15,0.1,12.2,0z M20.2,3.8l-2.6,2.6c1.3,1.4,2,3.3,2,5.2c0,2.6-1.3,5.1-3.5,6.6l1.8,3.2c3.2-2.1,5.4-5.7,5.4-9.8
	C23.3,8.6,22.1,5.9,20.2,3.8z M0,12.2c0.3,6.2,5.4,11.1,11.6,11.1c1.9,0,3.7-0.5,5.3-1.3l-1.8-3.2c-1.1,0.6-2.3,0.8-3.5,0.8
	c-4.2,0-7.6-3.2-7.9-7.4H0z"/>
  </symbol>
  <symbol viewBox="0 0 62 62" id="time" xmlns="http://www.w3.org/2000/svg">
    <path d="M31,0C13.9,0,0,13.9,0,31s13.9,31,31,31s31-13.9,31-31C62,13.9,48.1,0,31,0z M31,6c13.8,0,25,11.2,25,25S44.8,56,31,56
	S6,44.8,6,31C6,17.1,17.2,6,31,6z M31,12c-1.7,0-3,1.3-3,3v16c0,0.8,0.3,1.6,0.9,2.1l9.9,9.9c1.2,1.2,3.1,1.2,4.2,0
	c1.2-1.2,1.2-3.1,0-4.2l-9-9V15C34,13.3,32.7,12,31,12z"/>
  </symbol>
  <symbol viewBox="0 0 19.9 19.9" id="calendar" xmlns="http://www.w3.org/2000/svg">
    <path d="M17.3,2.5h-2.5V1.2c0-0.7-0.6-1.2-1.2-1.2s-1.2,0.6-1.2,1.2v1.2h-5V1.2C7.4,0.6,6.9,0,6.2,0S5,0.6,5,1.2v1.2H2.5
	C1.1,2.5,0,3.6,0,5v12.4c0,1.4,1.1,2.5,2.5,2.5h14.9c1.4,0,2.5-1.1,2.5-2.5V5C19.8,3.6,18.7,2.5,17.3,2.5z M17.3,17.3H2.5V6.8h14.9
	v10.5H17.3z"/>
  </symbol>
  <symbol viewBox="0 0 60 79.9" id="location" xmlns="http://www.w3.org/2000/svg">
    <path d="M30,0C13.5,0,0,13.7,0,33c0,24.6,17,38.6,28.3,46.4c1,0.7,2.4,0.7,3.4,0C43,71.5,60,57.6,60,33C60,13.7,46.5,0,30,0z M30,6
	c13.3,0,24,10.4,24,27c0,20.8-13.3,32.6-24,40.2C19.3,65.5,6,53.8,6,33C6,16.4,16.7,6,30,6z M30,14c-8.8,0-16,7.2-16,16
	s7.2,16,16,16s16-7.2,16-16C46,21.2,38.8,14,30,14z M30,20c5.6,0,10,4.4,10,10s-4.4,10-10,10s-10-4.4-10-10C20,24.4,24.4,20,30,20z"
	/>
  </symbol>
  <symbol viewBox="0 0 89.9 90" id="global" xmlns="http://www.w3.org/2000/svg">
    <path d="M80.7,72.3c5.8-7.6,9.2-17,9.2-27.3c0-9.9-3.2-19.1-8.7-26.5c0,0,0,0,0-0.1C73.1,7.3,59.9,0,45,0C20.2,0,0,20.2,0,45
	s20.2,45,45,45l0,0l0,0l0,0l0,0l0,0c14.3,0,27.1-6.7,35.3-17.2l0,0C80.5,72.6,80.6,72.5,80.7,72.3z M77.5,65.9
	c-2.5-2.1-5.3-4-8.1-5.6c1.3-4.5,2.1-9.6,2.1-15.4c0-5.2-0.7-9.9-1.8-14.1c3-1.7,5.8-3.6,8.4-5.9c3.5,5.8,5.6,12.7,5.6,20
	C83.7,52.7,81.4,59.9,77.5,65.9z M25,45c0-4.1,0.5-7.9,1.3-11.3c4.9,2,10.2,3.1,15.6,3.5v17c-5.3,0.3-10.4,1.5-15.3,3.3
	C25.6,53.8,25,49.6,25,45z M48.1,9c4.2,3.3,10.3,9.3,13.9,18.6c-4.4,1.8-9.1,2.9-13.9,3.3V9z M41.9,9.1v21.8
	c-4.8-0.3-9.4-1.4-13.7-3.2C31.7,18.4,37.7,12.4,41.9,9.1z M41.9,60.5v20.4c-4-3.2-9.6-8.8-13.2-17.4C32.8,61.9,37.3,60.9,41.9,60.5
	z M48.1,81V60.5c4.7,0.3,9.2,1.4,13.4,3.1C57.9,72.3,52.1,77.9,48.1,81z M48.1,54.2v-17c5.5-0.3,10.8-1.5,15.8-3.5
	c0.8,3.4,1.3,7.2,1.3,11.3c0,4.7-0.6,8.9-1.6,12.7C58.7,55.7,53.5,54.6,48.1,54.2z M74.4,19.9c-2.1,1.8-4.3,3.5-6.7,4.9
	c-3-7.3-7.2-12.8-11.2-16.7C63.6,10.3,69.7,14.4,74.4,19.9z M33.7,8c-4,3.9-8.3,9.5-11.3,16.9c-2.4-1.4-4.7-3.1-6.9-5
	C20.3,14.3,26.6,10.2,33.7,8z M11.9,25c2.7,2.3,5.5,4.3,8.6,6c-1.1,4.2-1.8,8.8-1.8,14c0,5.7,0.8,10.8,2.1,15.3
	c-2.9,1.6-5.7,3.5-8.3,5.7c-3.9-6-6.2-13.2-6.2-20.9C6.3,37.7,8.3,30.8,11.9,25z M16.3,70.9c2.1-1.8,4.3-3.3,6.7-4.7
	c3,6.8,7,12,10.8,15.8C26.9,80,20.9,76.1,16.3,70.9z M56.6,81.9c3.7-3.7,7.7-8.8,10.7-15.6c2.3,1.3,4.4,2.8,6.5,4.6
	C69.1,76,63.2,79.8,56.6,81.9z"/>
  </symbol>
  <symbol viewBox="0 0 512 512" id="telegram" xmlns="http://www.w3.org/2000/svg">
    <circle style="fill:#41B4E6;"  cx="256" cy="256" r="256"/>
<path style="fill:#0091C8;"  d="M512,256c0-6.2-0.2-12.4-0.7-18.5L405.2,131.4L106.8,248.8L221,363l1.5,5.4l1.9-2l0,0l-1.9,1.9l126.3,126.3
	C444.3,457.5,512,364.7,512,256z"/>
<polygon style="fill:#FFFFFF;"  points="231.1,293.3 346.8,380.6 405.2,131.4 106.8,248.8 197.6,278.8 363.3,167.7 "/>
<polygon style="fill:#D2D2D7;"  points="197.6,278.8 222.5,368.3 231.1,293.3 363.3,167.7 "/>
<polygon style="fill:#B9B9BE;" points="268.7,321.7 222.5,368.3 231.1,293.3 "/>
  </symbol>
</svg>
